<?xml version="1.0" encoding="UTF-8"?>
<svg width="512px" height="512px" viewBox="0 0 512 512" version="1.1" xmlns="http://www.w3.org/2000/svg" xmlns:xlink="http://www.w3.org/1999/xlink">
    <title>pac-logo-electrical</title>
    <g id="Logos" stroke="none" stroke-width="1" fill="none" fill-rule="evenodd">
        <g id="pac-logo-electrical">
            <path d="M512,256 C511.829604,291.529248 505.100948,324.704673 491.790256,355.518351 C478.653922,386.510348 460.401749,413.674411 437.0377,437.03828 C413.677613,460.402149 386.509377,478.65418 355.521102,491.790412 C324.703224,505.097039 291.527542,511.829605 255.998019,512 C220.468496,511.829605 187.292814,505.097039 156.478898,491.790412 C125.490623,478.65418 98.3223869,460.402149 74.9583375,437.03828 C51.5942881,413.674411 33.3421152,386.510348 20.2097442,355.518351 C6.89905189,324.704673 0.170395883,291.529248 0,256 C0.170395883,220.466789 6.89905189,187.295327 20.2097442,156.477687 C33.3421152,125.489652 51.5942881,98.3255886 74.9583375,74.9577574 C98.3223869,51.5938888 125.490623,33.3458199 156.478898,20.2095878 C187.292814,6.90296116 220.468496,0.170394564 255.998019,0 C291.527542,0.170394564 324.703224,6.90296116 355.521102,20.2095878 C386.509377,33.3458199 413.677613,51.5938888 437.0377,74.9577574 C460.401749,98.3255886 478.653922,125.489652 491.790256,156.477687 C505.100948,187.295327 511.829604,220.466789 512,256" id="Fill-1" fill="#25466E"></path>
            <path d="M121.265137,366 L97.2661133,366 L97.2661133,330.990234 L121.265137,330.990234 L121.265137,337.99707 L104.272949,337.99707 L104.272949,345.003906 L115.771973,345.003906 L115.771973,352.010742 L104.272949,352.010742 L104.272949,358.993164 L121.265137,358.993164 L121.265137,366 Z M154.684082,366 L130.172363,366 L130.172363,330.990234 L137.179199,330.990234 L137.179199,358.993164 L154.684082,358.993164 L154.684082,366 Z M186.320801,366 L162.321777,366 L162.321777,330.990234 L186.320801,330.990234 L186.320801,337.99707 L169.328613,337.99707 L169.328613,345.003906 L180.827637,345.003906 L180.827637,352.010742 L169.328613,352.010742 L169.328613,358.993164 L186.320801,358.993164 L186.320801,366 Z M222.327637,362.411133 C220.700033,363.810872 218.877116,364.885091 216.858887,365.633789 C214.840658,366.382487 212.749186,366.756836 210.584473,366.756836 C208.924316,366.756836 207.325195,366.541178 205.787109,366.109863 C204.249023,365.678548 202.808594,365.068197 201.46582,364.278809 C200.123047,363.489421 198.898275,362.541341 197.791504,361.43457 C196.684733,360.327799 195.736654,359.103027 194.947266,357.760254 C194.157878,356.41748 193.547526,354.977051 193.116211,353.438965 C192.684896,351.900879 192.469238,350.301758 192.469238,348.641602 C192.469238,346.981445 192.684896,345.378255 193.116211,343.832031 C193.547526,342.285807 194.157878,340.841309 194.947266,339.498535 C195.736654,338.155762 196.684733,336.93099 197.791504,335.824219 C198.898275,334.717448 200.123047,333.769368 201.46582,332.97998 C202.808594,332.190592 204.249023,331.580241 205.787109,331.148926 C207.325195,330.717611 208.924316,330.501953 210.584473,330.501953 C212.749186,330.501953 214.840658,330.872233 216.858887,331.612793 C218.877116,332.353353 220.700033,333.431641 222.327637,334.847656 L218.616699,340.951172 C217.591309,339.844401 216.378743,338.993978 214.979004,338.399902 C213.579264,337.805827 212.114421,337.508789 210.584473,337.508789 C209.038249,337.508789 207.589681,337.801758 206.23877,338.387695 C204.887858,338.973633 203.707845,339.76709 202.69873,340.768066 C201.689616,341.769043 200.89209,342.949056 200.306152,344.308105 C199.720215,345.667155 199.427246,347.111654 199.427246,348.641602 C199.427246,350.171549 199.720215,351.60791 200.306152,352.950684 C200.89209,354.293457 201.689616,355.469401 202.69873,356.478516 C203.707845,357.48763 204.887858,358.285156 206.23877,358.871094 C207.589681,359.457031 209.038249,359.75 210.584473,359.75 C212.114421,359.75 213.579264,359.452962 214.979004,358.858887 C216.378743,358.264811 217.591309,357.414388 218.616699,356.307617 L222.327637,362.411133 Z M245.077637,366 L238.095215,366 L238.095215,337.99707 L227.572754,337.99707 L227.572754,330.990234 L255.575684,330.990234 L255.575684,337.99707 L245.077637,337.99707 L245.077637,366 Z M270.293457,337.99707 L270.293457,352.010742 L277.300293,352.010742 C278.260579,352.010742 279.1639,351.827637 280.010254,351.461426 C280.856608,351.095215 281.597168,350.594727 282.231934,349.959961 C282.866699,349.325195 283.367188,348.580566 283.733398,347.726074 C284.099609,346.871582 284.282715,345.964193 284.282715,345.003906 C284.282715,344.04362 284.099609,343.13623 283.733398,342.281738 C283.367188,341.427246 282.866699,340.682617 282.231934,340.047852 C281.597168,339.413086 280.856608,338.912598 280.010254,338.546387 C279.1639,338.180176 278.260579,337.99707 277.300293,337.99707 L270.293457,337.99707 Z M270.293457,366 L263.286621,366 L263.286621,330.990234 L277.300293,330.990234 C278.5861,330.990234 279.823079,331.157064 281.01123,331.490723 C282.199382,331.824382 283.310221,332.296387 284.34375,332.906738 C285.377279,333.51709 286.321289,334.249512 287.175781,335.104004 C288.030273,335.958496 288.762695,336.906576 289.373047,337.948242 C289.983398,338.989909 290.455404,340.104818 290.789062,341.292969 C291.122721,342.48112 291.289551,343.718099 291.289551,345.003906 C291.289551,346.208333 291.138997,347.380208 290.837891,348.519531 C290.536784,349.658854 290.105469,350.741211 289.543945,351.766602 C288.982422,352.791992 288.294759,353.736003 287.480957,354.598633 C286.667155,355.461263 285.755697,356.209961 284.746582,356.844727 L288.628418,366 L281.182129,366 L278.130371,358.944336 L270.293457,358.993164 L270.293457,366 Z M306.88623,366 L299.879395,366 L299.879395,330.990234 L306.88623,330.990234 L306.88623,366 Z M345.334473,362.411133 C343.706868,363.810872 341.883952,364.885091 339.865723,365.633789 C337.847493,366.382487 335.756022,366.756836 333.591309,366.756836 C331.931152,366.756836 330.332031,366.541178 328.793945,366.109863 C327.255859,365.678548 325.81543,365.068197 324.472656,364.278809 C323.129883,363.489421 321.905111,362.541341 320.79834,361.43457 C319.691569,360.327799 318.74349,359.103027 317.954102,357.760254 C317.164714,356.41748 316.554362,354.977051 316.123047,353.438965 C315.691732,351.900879 315.476074,350.301758 315.476074,348.641602 C315.476074,346.981445 315.691732,345.378255 316.123047,343.832031 C316.554362,342.285807 317.164714,340.841309 317.954102,339.498535 C318.74349,338.155762 319.691569,336.93099 320.79834,335.824219 C321.905111,334.717448 323.129883,333.769368 324.472656,332.97998 C325.81543,332.190592 327.255859,331.580241 328.793945,331.148926 C330.332031,330.717611 331.931152,330.501953 333.591309,330.501953 C335.756022,330.501953 337.847493,330.872233 339.865723,331.612793 C341.883952,332.353353 343.706868,333.431641 345.334473,334.847656 L341.623535,340.951172 C340.598145,339.844401 339.385579,338.993978 337.98584,338.399902 C336.5861,337.805827 335.121257,337.508789 333.591309,337.508789 C332.045085,337.508789 330.596517,337.801758 329.245605,338.387695 C327.894694,338.973633 326.714681,339.76709 325.705566,340.768066 C324.696452,341.769043 323.898926,342.949056 323.312988,344.308105 C322.727051,345.667155 322.434082,347.111654 322.434082,348.641602 C322.434082,350.171549 322.727051,351.60791 323.312988,352.950684 C323.898926,354.293457 324.696452,355.469401 325.705566,356.478516 C326.714681,357.48763 327.894694,358.285156 329.245605,358.871094 C330.596517,359.457031 332.045085,359.75 333.591309,359.75 C335.121257,359.75 336.5861,359.452962 337.98584,358.858887 C339.385579,358.264811 340.598145,357.414388 341.623535,356.307617 L345.334473,362.411133 Z M373.992676,352.010742 L373.992676,345.003906 C373.992676,344.04362 373.80957,343.13623 373.443359,342.281738 C373.077148,341.427246 372.57666,340.682617 371.941895,340.047852 C371.307129,339.413086 370.5625,338.912598 369.708008,338.546387 C368.853516,338.180176 367.946126,337.99707 366.98584,337.99707 C366.025553,337.99707 365.118164,338.180176 364.263672,338.546387 C363.40918,338.912598 362.664551,339.413086 362.029785,340.047852 C361.39502,340.682617 360.894531,341.427246 360.52832,342.281738 C360.162109,343.13623 359.979004,344.04362 359.979004,345.003906 L359.979004,352.010742 L373.992676,352.010742 Z M380.999512,366 L373.992676,366 L373.992676,358.993164 L359.979004,358.993164 L359.979004,366 L352.996582,366 L352.996582,345.003906 C352.996582,343.067057 353.362793,341.24821 354.095215,339.547363 C354.827637,337.846517 355.824544,336.361328 357.085938,335.091797 C358.347331,333.822266 359.828451,332.821289 361.529297,332.088867 C363.230143,331.356445 365.048991,330.990234 366.98584,330.990234 C368.922689,330.990234 370.741536,331.356445 372.442383,332.088867 C374.143229,332.821289 375.628418,333.822266 376.897949,335.091797 C378.16748,336.361328 379.168457,337.846517 379.900879,339.547363 C380.633301,341.24821 380.999512,343.067057 380.999512,345.003906 L380.999512,366 Z M415.590332,366 L391.078613,366 L391.078613,330.990234 L398.085449,330.990234 L398.085449,358.993164 L415.590332,358.993164 L415.590332,366 Z" id="Combined-Shape" fill="#FFFFFF" fill-rule="nonzero"></path>
            <path d="M430.131575,209 L453,209 L453,189.06264 L432.418417,177 L396,177 L396,196.758389 L430.131575,196.758389 L430.131575,209 Z M453,246 L429.846314,246 L429.846314,258.243913 L396,258.243913 L396,279 L432.161682,279 L453,266.937681 L453,246 Z M332,266.939925 L332,189.237095 L352.584459,177 L389,177 L389,197.044144 L354.871121,197.044144 L354.871121,258.247775 L389,258.247775 L389,279 L352.584459,279 L332,266.939925 Z M247,260.776573 L247,279 L215.812759,279 L196,268.638197 L196,240.057537 L222.703579,229.160961 L211.853734,221.838681 L211.853734,186.648772 L237.009855,177 L247,177 L247,200.758559 L231.838434,200.758559 L231.838434,209.333214 L247,221.838681 L247,245.953755 L241.661048,242.201201 L217.364627,252.384746 L217.364627,260.776573 L247,260.776573 Z M315,240.057537 L300.871328,258.459222 L315,268.816455 L294.940498,279 L288.840089,274.89093 L284.997769,279 L255,279 L255,260.776573 L268.253998,260.776573 L255,251.667145 L255,215.764205 L271.043139,209.333214 L271.043139,200.758559 L255,200.758559 L255,177 L264.94273,177 L291.107103,186.648772 L291.107103,221.838681 L264.242097,232.735257 L284.997769,248.275677 L294.940498,233.983061 L315,240.057537 Z M179,226.887206 L179,226.887206 L179,189.290588 L158.415541,177 L122,177 L122,197.131765 L156.128879,197.131765 L156.128879,218.157059 L122,218.157059 L122,239 L158.415541,239 L179,226.887206 Z M58,177 L58,177 L115,177 L115,197.044144 L80.8711206,197.044144 L80.8711206,217.977928 L115,217.977928 L115,238.730153 L80.8711206,238.730153 L80.8711206,279 L58,279 L58,177 Z" id="P&amp;C" fill="#FFFFFF"></path>
        </g>
    </g>
</svg>