<?xml version="1.0" encoding="UTF-8"?>
<svg width="200px" height="200px" viewBox="0 0 200 200" version="1.1" xmlns="http://www.w3.org/2000/svg" xmlns:xlink="http://www.w3.org/1999/xlink">
    <title>4bed-home-alt</title>
    <g id="4bed-home-alt" stroke="none" stroke-width="1" fill="none" fill-rule="evenodd">
        <g id="modern-house-(1)" transform="translate(0, 21)" fill="#000000" fill-rule="nonzero">
            <path d="M200,5.85929591 C200,2.62340209 197.376601,0 194.140712,0 L88.6735267,0 C81.6271469,0.163279046 80.6584113,10.0529893 87.5016691,11.6010153 L87.5016691,41.6236569 C87.5016691,41.6236569 3.82869183,72.5900358 3.82869183,72.5900358 C1.49005465,73.4556491 -0.00718875853,75.6849159 0.0037485792,78.1083207 C-0.00718875853,78.1188675 0.00999848647,152.719423 0.00296734079,152.732704 C0.00296734079,155.968598 2.62636592,158.592 5.86225541,158.592 L189.453281,158.592 C192.689171,158.592 195.31257,155.968598 195.31257,152.732704 L195.31257,11.6014059 C197.987139,11.0580539 200,8.69402328 200,5.85929591 Z M11.7215435,83.9832414 L87.5016691,83.9832414 L87.5016691,108.982904 L11.7215435,108.982904 L11.7215435,83.9832414 Z M61.3297918,120.701496 L61.3297918,146.873018 L37.8930302,146.873018 L37.8930302,120.701496 L61.3297918,120.701496 Z M73.0483679,120.701496 L87.5012785,120.701496 L87.5012785,146.873018 L73.0483679,146.873018 L73.0483679,120.701496 Z M87.5016691,54.1184102 L87.5016691,72.225197 L38.5758325,72.225197 L87.5016691,54.1184102 Z M11.7215435,120.701496 L26.174454,120.701496 L26.174454,146.873018 L11.7215435,146.873018 L11.7215435,120.701496 Z M122.657398,146.872627 L122.657398,91.4050162 L160.156841,91.4050162 L160.156841,146.872627 L122.657398,146.872627 Z M183.593993,146.873018 L171.875417,146.873018 L171.875417,85.5457203 C171.875417,82.3098265 169.252019,79.6864244 166.016129,79.6864244 L116.798109,79.6864244 C113.56222,79.6864244 110.938821,82.3098265 110.938821,85.5457203 L110.938821,146.873018 L99.2202453,146.873018 C99.2202453,108.755173 99.2202453,49.3680836 99.2202453,11.7185918 L183.593993,11.7185918 L183.593993,146.873018 Z" id="Shape"></path>
            <path d="M116.798109,58.5929591 L166.016129,58.5929591 C169.252019,58.5929591 171.875417,55.969557 171.875417,52.7336632 L171.875417,29.2964796 C171.875417,26.0605857 169.252019,23.4371837 166.016129,23.4371837 L116.798109,23.4371837 C113.56222,23.4371837 110.938821,26.0605857 110.938821,29.2964796 L110.938821,52.7336632 C110.938821,55.969557 113.56222,58.5929591 116.798109,58.5929591 Z M160.156841,46.8743673 L147.266407,46.8743673 L147.266407,35.1557755 L160.156841,35.1557755 L160.156841,46.8743673 Z M122.657398,35.1557755 L135.547831,35.1557755 L135.547831,46.8743673 L122.657398,46.8743673 L122.657398,35.1557755 Z" id="Shape"></path>
        </g>
    </g>
</svg>