<?xml version="1.0" encoding="UTF-8"?>
<svg width="200px" height="200px" viewBox="0 0 200 200" version="1.1" xmlns="http://www.w3.org/2000/svg" xmlns:xlink="http://www.w3.org/1999/xlink">
    <title>commercial</title>
    <g id="commercial" stroke="none" stroke-width="1" fill="none" fill-rule="evenodd">
        <path d="M182.8125,24 C186.048889,24 188.671875,26.6229902 188.671875,29.8593846 L188.671875,47.4375385 L194.140625,47.4375385 C197.377014,47.4375385 200,50.0605287 200,53.2969231 L200,170.484615 C200,173.72101 197.377014,176.344 194.140625,176.344 L5.859375,176.344 C2.62451172,176.344 0,173.72101 0,170.484615 L0,53.2969231 C0,51.7420498 0.617980859,50.2527896 1.71661367,49.154155 C2.81524648,48.0539946 4.30603047,47.4375385 5.859375,47.4375385 L11.328125,47.4375385 L11.328125,29.8593846 C11.328125,26.6229902 13.9511109,24 17.1875,24 Z M82.421875,152.906462 L35.546875,152.906462 L35.546875,164.625231 L82.421875,164.625231 L82.421875,152.906462 Z M164.453125,129.468923 L117.578125,129.468923 L117.578125,164.625231 L164.453125,164.625231 L164.453125,129.468923 Z M188.28125,59.1563077 L11.71875,59.1563077 L11.71875,164.625231 L23.828125,164.625231 L23.828125,100.172 C23.828125,96.9356056 26.4526367,94.3126154 29.6875,94.3126154 L88.28125,94.3126154 C91.5176391,94.3126154 94.140625,96.9356056 94.140625,100.172 L94.140625,164.625231 L105.859375,164.625231 L105.859375,100.172 C105.859375,96.9356056 108.482361,94.3126154 111.71875,94.3126154 L170.3125,94.3126154 C173.548889,94.3126154 176.171875,96.9356056 176.171875,100.172 L176.171875,164.625231 L188.28125,164.625231 L188.28125,59.1563077 Z M82.421875,129.468923 L35.546875,129.468923 L35.546875,141.187692 L82.421875,141.187692 L82.421875,129.468923 Z M82.421875,106.031385 L35.546875,106.031385 L35.546875,117.750154 L82.421875,117.750154 L82.421875,106.031385 Z M164.453125,106.031385 L117.578125,106.031385 L117.578125,117.750154 L164.453125,117.750154 L164.453125,106.031385 Z M47.8683473,70.8750769 C51.1047363,70.8750769 53.7277223,73.4980672 53.7277223,76.7344615 C53.7277223,79.9708559 51.1047363,82.5938462 47.8683473,82.5938462 L31.2332152,82.5938462 C27.9968262,82.5938462 25.3738402,79.9708559 25.3738402,76.7344615 C25.3738402,73.4980672 27.9968262,70.8750769 31.2332152,70.8750769 Z M88.1027223,70.8750769 C91.3391113,70.8750769 93.9620973,73.4980672 93.9620973,76.7344615 C93.9620973,79.9708559 91.3391113,82.5938462 88.1027223,82.5938462 L71.4675902,82.5938462 C68.2312012,82.5938462 65.6082152,79.9708559 65.6082152,76.7344615 C65.6082152,73.4980672 68.2312012,70.8750769 71.4675902,70.8750769 Z M128.337097,70.8750769 C131.573486,70.8750769 134.196472,73.4980672 134.196472,76.7344615 C134.196472,79.9708559 131.573486,82.5938462 128.337097,82.5938462 L111.701965,82.5938462 C108.465576,82.5938462 105.84259,79.9708559 105.84259,76.7344615 C105.84259,73.4980672 108.465576,70.8750769 111.701965,70.8750769 Z M168.766785,70.8750769 C172.003174,70.8750769 174.62616,73.4980672 174.62616,76.7344615 C174.62616,79.9708559 172.003174,82.5938462 168.766785,82.5938462 L152.131653,82.5938462 C148.895264,82.5938462 146.272278,79.9708559 146.272278,76.7344615 C146.272278,73.4980672 148.895264,70.8750769 152.131653,70.8750769 Z M176.953125,35.7187692 L23.046875,35.7187692 L23.046875,47.4375385 L176.953125,47.4375385 L176.953125,35.7187692 Z" id="Combined-Shape" fill="#FFFFFF" fill-rule="nonzero"></path>
    </g>
</svg>