<?xml version="1.0" encoding="UTF-8"?>
<svg width="200px" height="200px" viewBox="0 0 200 200" version="1.1" xmlns="http://www.w3.org/2000/svg" xmlns:xlink="http://www.w3.org/1999/xlink">
    <title>electrical-alt</title>
    <g id="electrical-alt" stroke="none" stroke-width="1" fill="none" fill-rule="evenodd">
        <g id="006-thunder-copy" transform="translate(41, 0)" fill="#1B1819" fill-rule="nonzero">
            <path d="M38.7103839,199.527032 C41.3541224,200.657885 44.4361401,199.705547 45.9744146,197.26103 L116.286607,85.5429537 C117.42293,83.7374958 117.488164,81.4570408 116.456918,79.5894739 C115.425673,77.721907 113.461228,76.562539 111.327644,76.562539 L64.3903496,76.562539 L81.8531638,7.29225332 C82.5574576,4.49812953 81.1258232,1.6067407 78.4766161,0.473153785 C75.8270183,-0.660433134 72.7473443,0.300498575 71.2125854,2.73915575 L0.900393263,114.457233 C-0.235929886,116.26269 -0.301163975,118.543145 0.730081509,120.410712 C1.76132699,122.278279 3.72577152,123.437647 5.85935592,123.437647 L52.7966504,123.437647 L35.3338362,192.707933 C34.6295424,195.502057 36.0611768,198.393445 38.7103839,199.527032 Z M16.4706376,111.718968 L61.4653624,40.2276017 L51.1892355,80.9902467 C50.7478312,82.7417987 51.1388451,84.5988187 52.2489965,86.0238101 C53.3591479,87.4484109 55.0646092,88.281609 56.8708513,88.281609 L100.717144,88.281609 L55.7220282,159.772975 L65.9981551,119.01033 C66.4395594,117.258778 66.0485455,115.401758 64.9383941,113.976767 C63.8282427,112.552166 62.1227814,111.718968 60.3165393,111.718968 L16.4706376,111.718968 Z" id="Shape"></path>
        </g>
    </g>
</svg>