<?xml version="1.0" encoding="UTF-8"?>
<svg width="30px" height="30px" viewBox="0 0 30 30" version="1.1" xmlns="http://www.w3.org/2000/svg" xmlns:xlink="http://www.w3.org/1999/xlink">
    <title>electrical-alt-icon</title>
    <g id="electrical-alt-icon" stroke="none" stroke-width="1" fill="none" fill-rule="evenodd">
        <g id="006-thunder-copy" transform="translate(6.15, 0)" fill="#1B1819" fill-rule="nonzero">
            <path d="M5.80655759,29.9290549 C6.20311835,30.0986827 6.66542102,29.955832 6.8961622,29.5891546 L17.442991,12.831443 C17.6134395,12.5606244 17.6232246,12.2185561 17.4685378,11.9384211 C17.313851,11.6582861 17.0191843,11.4843809 16.6991466,11.4843809 L9.65855244,11.4843809 L12.2779746,1.093838 C12.3836186,0.674719429 12.1688735,0.241011106 11.7714924,0.0709730677 C11.3740527,-0.0990649702 10.9121016,0.0450747862 10.6818878,0.410873363 L0.13505899,17.1685849 C-0.0353894828,17.4394036 -0.0451745962,17.7814718 0.109512226,18.0616068 C0.264199049,18.3417419 0.558865727,18.5156471 0.878903388,18.5156471 L7.91949756,18.5156471 L5.30007543,28.9061899 C5.19443137,29.3253085 5.40917652,29.7590168 5.80655759,29.9290549 Z M2.47059564,16.7578452 L9.21980436,6.03414026 L7.67838533,12.148537 C7.61217468,12.4112698 7.67082677,12.6898228 7.83734948,12.9035715 C8.00387219,13.1172616 8.25969138,13.2422414 8.53062769,13.2422414 L15.1075715,13.2422414 L8.35830423,23.9659463 L9.89972326,17.8515495 C9.96593391,17.5888167 9.90728182,17.3102637 9.74075911,17.096515 C9.57423641,16.8828249 9.31841721,16.7578452 9.0474809,16.7578452 L2.47059564,16.7578452 Z" id="Shape"></path>
        </g>
    </g>
</svg>