<?xml version="1.0" encoding="UTF-8"?>
<svg width="165px" height="240px" viewBox="0 0 165 240" version="1.1" xmlns="http://www.w3.org/2000/svg" xmlns:xlink="http://www.w3.org/1999/xlink">
    <title>Path</title>
    <g id="2025-Web-update" stroke="none" stroke-width="1" fill="none" fill-rule="evenodd">
        <g id="2" transform="translate(-878, -357)" fill="#1b1819" fill-rule="nonzero">
            <path d="M1009.26045,358.026789 C1012.28347,359.779306 1013.69559,363.387357 1012.66525,366.726277 L985.651835,454.501119 L1035.49391,454.501119 C1038.48762,454.499926 1041.19527,456.279292 1042.38203,459.027739 C1043.56878,461.776185 1043.00728,464.967142 1040.95358,467.145376 L920.960637,594.637883 C918.569885,597.180161 914.741481,597.737375 911.725227,595.982073 C908.708974,594.226771 907.302104,590.622901 908.331379,587.288315 L935.344791,499.498474 L885.502721,499.498474 C882.509003,499.499668 879.801356,497.720302 878.614601,494.971855 C877.427846,492.223408 877.989351,489.032451 880.043041,486.854218 L1000.03599,359.36171 C1002.42366,356.823092 1006.24547,356.263802 1009.26045,358.011789 L1009.26045,358.026789 Z" id="Path"></path>
        </g>
    </g>
</svg>