<?xml version="1.0" encoding="UTF-8"?>
<svg width="320px" height="240px" viewBox="0 0 320 240" version="1.1" xmlns="http://www.w3.org/2000/svg" xmlns:xlink="http://www.w3.org/1999/xlink">
    <title>Shape</title>
    <g id="2025-Web-update" stroke="none" stroke-width="1" fill="none" fill-rule="evenodd">
        <g id="2" transform="translate(-1380, -357)" fill="#FFFFFF" fill-rule="nonzero">
            <path d="M1430.37999,387.300035 C1438.26628,368.903141 1456.36402,356.982238 1476.37998,357.00002 L1603.61996,357.00002 C1623.61996,357.00002 1641.69996,368.920038 1649.57996,387.300035 L1665.41995,424.260029 C1666.91995,427.760028 1669.61995,430.640028 1673.01995,432.340027 C1683.01995,437.340026 1690.11995,446.640025 1692.31995,457.580023 L1699.01995,491.160018 C1699.68661,494.386684 1700.01328,497.65335 1700.00034,500.960016 L1700.00034,509.220015 C1700.00034,525.50002 1692.19995,540.080009 1679.99995,549.160008 L1679.99995,587.000002 C1679.99995,592.522848 1675.5228,597 1669.99995,597 L1629.99996,597 C1624.47711,597 1619.99996,592.522848 1619.99996,587.000002 L1619.99996,560.240006 C1594.15996,561.200006 1565.09997,562.000006 1539.99997,562.000006 C1514.89998,562.000006 1485.83998,561.200006 1459.99999,560.240006 L1459.99999,587.000002 C1459.99999,592.522848 1455.52283,597 1449.99999,597 L1410,597 C1404.47715,597 1400,592.522848 1400,587.000002 L1400,549.160008 C1387.8,540.080009 1380,525.50002 1380,509.220015 L1380,500.960016 C1380.00336,497.669059 1380.33162,494.386472 1380.98,491.160018 L1387.68,457.560023 C1389.88,446.640025 1396.98,437.320026 1406.96,432.340027 C1410.38329,430.642936 1413.08624,427.776809 1414.57999,424.260029 L1430.41999,387.300035 L1430.37999,387.300035 Z M1565.37997,397.500033 C1563.87642,396.622376 1561.96528,396.904894 1560.77997,398.180033 L1500.97998,461.920022 C1499.96323,463.013767 1499.69011,464.605548 1500.28412,465.975664 C1500.87812,467.34578 1502.22665,468.234508 1503.71998,468.240021 L1528.53998,468.240021 L1515.07998,512.140014 C1514.57841,513.811284 1515.27949,515.609362 1516.77998,516.500013 C1518.27998,517.360013 1520.17998,517.100013 1521.37998,515.820013 L1578.97997,452.080024 C1579.99672,450.98628 1580.26983,449.394498 1579.67583,448.024382 C1579.08182,446.654267 1577.7333,445.765539 1576.23997,445.760025 L1551.41997,445.760025 L1567.05997,401.860032 C1567.56154,400.188762 1566.86045,398.390685 1565.35997,397.500033 L1565.37997,397.500033 Z" id="Shape"></path>
        </g>
    </g>
</svg>