<?xml version="1.0" encoding="UTF-8"?>
<svg width="200px" height="200px" viewBox="0 0 200 200" version="1.1" xmlns="http://www.w3.org/2000/svg" xmlns:xlink="http://www.w3.org/1999/xlink">
    <title>ev-charging</title>
    <g id="ev-charging" stroke="none" stroke-width="1" fill="none" fill-rule="evenodd">
        <g id="002-ev" fill="#FFFFFF" fill-rule="nonzero">
            <path d="M196.53609,74.5545364 C195.711831,71.4284487 192.508462,69.5629432 189.382757,70.3868098 C186.256272,71.2110666 184.390762,74.4136478 185.215021,77.5401257 C200.403706,132.292322 156.84366,189.028666 99.9280465,188.230558 C51.2936578,188.231729 11.7268959,148.664279 11.7268959,100.030004 C10.8074103,37.9075005 77.6781337,-6.28975914 134.437247,18.8699779 C133.735925,21.9621118 133.660602,25.1974759 134.25616,28.4180097 C135.405907,34.6334993 138.892225,40.0184878 144.072333,43.5812911 L158.703316,53.6444834 C159.982244,54.5265006 161.569488,54.8597939 163.085703,54.5776264 C164.222961,54.3672692 165.262261,53.8259604 166.082617,53.0356573 L173.898245,58.4112792 C176.529472,60.2299519 180.195707,59.5887332 182.038581,56.9056055 C183.870917,54.2416012 183.196914,50.5968406 180.532903,48.7648986 L172.816015,43.4571842 L180.998891,31.5597082 L188.716169,36.8674226 C191.347787,38.6860954 195.013241,38.0444864 196.856895,35.361749 C198.688842,32.6977447 198.014838,29.052984 195.350828,27.221042 L187.536761,21.8465909 C188.604161,19.3375251 187.797854,16.3413983 185.464016,14.7365953 L170.833033,4.67340298 C165.652925,1.1105997 159.375758,-0.21867054 153.162205,0.931074061 C147.923947,1.90012221 143.279686,4.53407547 139.814833,8.43758719 C74.6574127,-20.5101407 -0.577273516,28.7048604 0.0190652044,100.030785 C-1.0885325,153.730805 46.2243884,201.05181 99.9292173,199.938751 C164.564061,200.733738 213.739369,136.844467 196.53609,74.5545364 Z M155.295053,12.4640349 C158.360265,11.8353049 161.631151,12.554188 164.197984,14.3193933 L174.00557,21.0652641 L160.514968,40.680391 L150.706991,33.9349104 C141.942997,27.9485111 145.247838,14.5882915 155.295053,12.4640349 Z" id="Shape"></path>
            <path d="M81.9126069,74.5358033 C89.671645,74.2477817 89.6657908,63.1128994 81.9126069,62.8276098 L54.7643647,62.8276098 C51.5313347,62.8276098 48.9102543,65.4486841 48.9102543,68.6817066 L48.9102543,131.378302 C48.9102543,134.611325 51.5313347,137.232399 54.7643647,137.232399 L81.9126069,137.232399 C89.671645,136.944377 89.6657908,125.809495 81.9126069,125.524205 L60.6184752,125.524205 L60.6184752,105.884101 L81.8247953,105.884101 C89.5838333,105.59608 89.5779792,94.4611973 81.8247953,94.1759076 L60.6184752,94.1759076 L60.6184752,74.5358033 L81.9126069,74.5358033 Z" id="Path"></path>
            <path d="M156.123604,63.2155413 C153.103664,62.0576009 149.719207,63.5663968 148.561264,66.5851594 L129.98305,115.028981 L111.404835,66.5851594 C110.246892,63.5663968 106.861265,62.0564301 103.842495,63.2155413 C100.823725,64.3730913 99.314926,67.7591009 100.472479,70.7774732 L124.516481,133.474069 C126.415164,138.452783 133.551325,138.450832 135.448838,133.474069 L159.49284,70.7774732 C160.650783,67.7591009 159.142374,64.3730913 156.123604,63.2155413 Z" id="Path"></path>
        </g>
    </g>
</svg>