<?xml version="1.0" encoding="UTF-8"?>
<svg width="30px" height="30px" viewBox="0 0 30 30" version="1.1" xmlns="http://www.w3.org/2000/svg" xmlns:xlink="http://www.w3.org/1999/xlink">
    <title>ev-charging-alt-icon</title>
    <g id="ev-charging-alt-icon" stroke="none" stroke-width="1" fill="none" fill-rule="evenodd">
        <g id="002-ev" transform="translate(0, -0)" fill="#1B1819" fill-rule="nonzero">
            <path d="M29.4804135,11.1831805 C29.3567747,10.7142673 28.8762693,10.4344415 28.4074136,10.5580215 C27.9384408,10.68166 27.6586143,11.1620472 27.7822531,11.6310189 C30.0605559,19.8438483 23.526549,28.3543 14.989207,28.2345837 C7.69404867,28.2347593 1.75903438,22.2996419 1.75903438,15.0045007 C1.62111154,5.68612507 11.6517201,-0.943463871 20.1655871,2.83049668 C20.0603887,3.29431676 20.0490903,3.77962139 20.138424,4.26270145 C20.3108861,5.1950249 20.8338338,6.00277317 21.6108499,6.53719366 L23.8054974,8.04667251 C23.9973366,8.17897509 24.2354232,8.22896908 24.4628554,8.18664396 C24.6334442,8.15509038 24.7893392,8.07389406 24.9123926,7.9553486 L26.0847367,8.76169188 C26.4794209,9.03449279 27.029356,8.93830998 27.3057871,8.53584083 C27.5806376,8.13624019 27.4795371,7.58952609 27.0799355,7.31473479 L25.9224022,6.51857763 L27.1498336,4.73395624 L28.3074254,5.5301134 C28.7021681,5.8029143 29.2519861,5.70667295 29.5285343,5.30426234 C29.8033262,4.9046617 29.7022258,4.3579476 29.3026242,4.0831563 L28.1305142,3.27698864 C28.2906241,2.90062876 28.1696782,2.45120975 27.8196024,2.21048929 L25.6249549,0.701010446 C24.8479388,0.166589954 23.9063637,-0.032800581 22.9743307,0.139661109 C22.188592,0.285018331 21.4919529,0.680111321 20.972225,1.26563808 C11.1986119,-3.0765211 -0.0865910274,4.30572906 0.00285978066,15.0046177 C-0.163279875,23.0596207 6.93365826,30.1577715 14.9893826,29.9908127 C24.6846091,30.1100607 32.0609054,20.5266701 29.4804135,11.1831805 Z M23.2942579,1.86960524 C23.7540397,1.77529574 24.2446727,1.8831282 24.6296976,2.147909 L26.1008355,3.15978962 L24.0772452,6.10205865 L22.6060487,5.09023657 C21.2914496,4.19227667 21.7871757,2.18824373 23.2942579,1.86960524 Z" id="Shape"></path>
            <path d="M12.286891,11.1803705 C13.4507467,11.1371673 13.4498686,9.46693492 12.286891,9.42414147 L8.21465471,9.42414147 C7.7297002,9.42414147 7.33653814,9.81730261 7.33653814,10.302256 L7.33653814,19.7067453 C7.33653814,20.1916987 7.7297002,20.5848598 8.21465471,20.5848598 L12.286891,20.5848598 C13.4507467,20.5416566 13.4498686,18.8714243 12.286891,18.8286308 L9.09277128,18.8286308 L9.09277128,15.8826152 L12.2737193,15.8826152 C13.437575,15.8394119 13.4366969,14.1691796 12.2737193,14.1263861 L9.09277128,14.1263861 L9.09277128,11.1803705 L12.286891,11.1803705 Z" id="Path"></path>
            <path d="M23.4185407,9.48233119 C22.9655496,9.30864014 22.4578811,9.53495952 22.2841897,9.98777391 L19.4974575,17.2543471 L16.7107252,9.98777391 C16.5370338,9.53495952 16.0291897,9.30846452 15.5763743,9.48233119 C15.1235588,9.6559637 14.8972389,10.1638651 15.0708718,10.616621 L18.6774722,20.0211103 C18.9622747,20.7679174 20.0326988,20.7676247 20.3173256,20.0211103 L23.923926,10.616621 C24.0976175,10.1638651 23.8713561,9.6559637 23.4185407,9.48233119 Z" id="Path"></path>
        </g>
    </g>
</svg>