<?xml version="1.0" encoding="UTF-8"?>
<svg width="200px" height="200px" viewBox="0 0 200 200" version="1.1" xmlns="http://www.w3.org/2000/svg" xmlns:xlink="http://www.w3.org/1999/xlink">
    <title>home-alt</title>
    <g id="home-alt" stroke="none" stroke-width="1" fill="none" fill-rule="evenodd">
        <path d="M146.894531,12 C150.130469,12 152.753906,14.6234394 152.753906,17.8593792 L152.753906,35.8281419 L170.292969,35.8281419 C172.81875,35.8281419 175.060156,37.4465024 175.854687,39.8437698 L199.292187,110.546945 C200.548438,114.33601 197.722266,118.250075 193.730469,118.250075 L187.695312,118.250075 L187.695312,176.453242 L194.140625,176.453242 C197.376563,176.453242 200,179.076681 200,182.312621 C200,185.548561 197.376563,188.172 194.140625,188.172 L5.859375,188.172 C2.6234375,188.172 0,185.548561 0,182.312621 C0,179.076681 2.6234375,176.453242 5.859375,176.453242 L12.3046875,176.453242 L12.3046875,118.250075 L6.26953125,118.250075 C2.27773438,118.250075 -0.548046875,114.33601 0.7078125,110.546945 L24.1453125,39.8437698 C24.9398437,37.4465024 27.18125,35.8281419 29.7070312,35.8281419 L117.597656,35.8281419 L117.597656,17.8593792 C117.597656,14.6234394 120.221094,12 123.457031,12 Z M100.001172,96.7250601 L80.5652344,116.498121 C79.4636719,117.618825 77.9582031,118.250075 76.3867187,118.250075 L24.0234375,118.250075 L24.0234375,176.453242 L82.4414062,176.453242 L82.4414062,135.437588 C82.4414062,132.201648 85.0648438,129.578208 88.3007812,129.578208 L111.699219,129.578208 C114.935156,129.578208 117.558594,132.201648 117.558594,135.437588 L117.558594,176.453242 L175.976562,176.453242 L175.976562,118.250075 L123.625391,118.250075 C122.054687,118.250075 120.549219,117.619216 119.448047,116.499293 L100.001172,96.7250601 Z M105.839844,141.296967 L94.1601562,141.296967 L94.1601562,176.453242 L105.839844,176.453242 L105.839844,141.296967 Z M158.613281,129.578208 C161.849219,129.578208 164.472656,132.201648 164.472656,135.437588 L164.472656,158.875104 C164.472656,162.111044 161.849219,164.734483 158.613281,164.734483 L135.175781,164.734483 C131.939844,164.734483 129.316406,162.111044 129.316406,158.875104 L129.316406,135.437588 C129.316406,132.201648 131.939844,129.578208 135.175781,129.578208 Z M64.8632812,129.578208 C68.0992188,129.578208 70.7226562,132.201648 70.7226562,135.437588 L70.7226562,158.875104 C70.7226562,162.111044 68.0992188,164.734483 64.8632812,164.734483 L41.4257813,164.734483 C38.1898438,164.734483 35.5664062,162.111044 35.5664062,158.875104 L35.5664062,135.437588 C35.5664062,132.201648 38.1898438,129.578208 41.4257813,129.578208 Z M152.753906,141.296967 L141.035156,141.296967 L141.035156,153.015725 L152.753906,153.015725 L152.753906,141.296967 Z M59.0039062,141.296967 L47.2851562,141.296967 L47.2851562,153.015725 L59.0039062,153.015725 L59.0039062,141.296967 Z M166.0625,47.5469002 L33.9375,47.5469002 L14.3847656,106.531317 L73.9300781,106.531317 L95.8214844,84.2594263 C98.1164063,81.9250496 101.882422,81.924659 104.177734,84.258645 L126.081641,106.531317 L185.615234,106.531317 L166.0625,47.5469002 Z M141.035156,23.7187583 L129.316406,23.7187583 L129.316406,35.8281419 L141.035156,35.8281419 L141.035156,23.7187583 Z" id="Combined-Shape" fill="#1B1819" fill-rule="nonzero"></path>
    </g>
</svg>