<svg id="Icons" viewBox="0 0 60 60" xmlns="http://www.w3.org/2000/svg"><path d="m3 60h32c1.654 0 3-1.346 3-3v-1.448c0-4.703-3.013-8.815-7.498-10.231l-6.502-2.053v-1.133c.344-.229.674-.458.976-.671.23-.162.447-.315.652-.453.777-.525 1.421-1.217 1.903-2.011h25.469c1.103 0 2-.897 2-2v-18h3.72c.542 0 1.027-.345 1.207-.857.179-.51.017-1.078-.384-1.398l-8.543-7.186v-6.059c0-.827-.673-1.5-1.5-1.5h-4c-.827 0-1.5.673-1.5 1.5v.17l-3.927-3.303c-.641-.497-1.524-.493-2.167.024l-17.493 14.699c-.464-.055-.934-.091-1.413-.091-6.617 0-12 5.383-12 12v5c0 1.465.988 2.702 2.334 3.081l.269 1.608c.294 1.757 1.304 3.332 2.77 4.321.205.138.422.291.652.453.302.213.632.442.976.671v1.133l-6.502 2.053c-4.485 1.416-7.498 5.528-7.498 10.231v1.448c0 1.654 1.346 3 3 3zm11.722-14.864 2.756 2.756-1.508 1.133-2.6-3.463 1.352-.427zm8.556 0 1.352.427-2.6 3.463-1.508-1.133 2.756-2.756zm25.722-8.136h-8v-14h8zm2 0v-14c0-1.103-.897-2-2-2h-8c-1.103 0-2 .897-2 2v14h-10.671c.023-.104.051-.206.068-.311l.269-1.608c1.346-.379 2.334-1.616 2.334-3.081v-1h4c1.103 0 2-.897 2-2v-6c0-1.103-.897-2-2-2h-5.623c-.803-1.383-1.872-2.587-3.139-3.549l12.762-10.507 14 11.528v18.528zm-20.7-14h4.7v6h-4v-2c0-1.404-.255-2.747-.7-4zm15.7-19h3v3.876l-3-2.523v-1.352zm-6.995-1.919 17.735 14.919h-2.382l-14.723-12.123c-.369-.305-.902-.304-1.271 0l-13.908 11.449c-.512-.263-1.046-.489-1.597-.677zm-20.005 14.919c5.514 0 10 4.486 10 10v2.044c-.094-.038-.186-.081-.284-.111-.307-1.562-1.427-2.786-2.843-2.988-1.545-.219-3.789-.733-5.708-1.939-.719-.451-1.611-.451-2.33 0-1.919 1.206-4.163 1.721-5.709 1.939-1.415.202-2.535 1.426-2.842 2.988-.098.029-.19.072-.284.111v-2.044c0-5.514 4.486-10 10-10zm-7.425 19.359-.389-2.324c-.081-.481-.498-.835-.986-.835-.662 0-1.2-.538-1.2-1.2s.538-1.2 1.2-1.2c.553 0 1-.447 1-1 0-.954.531-1.777 1.208-1.874 1.737-.247 4.273-.833 6.491-2.227.035-.021.067-.033.101-.033s.065.012.101.033c2.218 1.394 4.754 1.979 6.49 2.227.678.097 1.209.92 1.209 1.874 0 .553.447 1 1 1 .662 0 1.2.538 1.2 1.2s-.538 1.2-1.2 1.2c-.488 0-.905.354-.986.835l-.389 2.324c-.204 1.219-.902 2.31-1.916 2.993-.215.146-.443.307-.686.477-1.371.968-3.078 2.171-4.823 2.171s-3.452-1.203-4.823-2.171c-.242-.17-.471-.331-.686-.477-1.014-.684-1.712-1.774-1.916-2.993zm7.425 7.641c1.07 0 2.075-.304 3-.728v.314l-3 3-3-3v-.314c.925.424 1.93.728 3 .728zm-17 11.552c0-3.827 2.451-7.172 6.1-8.325l3.248-1.026 3.064 4.081c.633.838 1.839 1.016 2.698.388l1.89-1.419 1.9 1.427c.342.25.741.37 1.138.37.59 0 1.173-.266 1.552-.768l3.062-4.079 3.248 1.026c3.648 1.153 6.1 4.498 6.1 8.325v1.448c0 .552-.448 1-1 1h-32c-.552 0-1-.448-1-1z"/></svg>