<?xml version="1.0" encoding="UTF-8"?>
<svg width="200px" height="200px" viewBox="0 0 200 200" version="1.1" xmlns="http://www.w3.org/2000/svg" xmlns:xlink="http://www.w3.org/1999/xlink">
    <title>large-home-alt</title>
    <g id="large-home-alt" stroke="none" stroke-width="1" fill="none" fill-rule="evenodd">
        <g id="modern-house" fill="#000000" fill-rule="nonzero">
            <path d="M194.140625,23.4375 L176.5625,23.4375 L176.5625,5.859375 C176.5625,2.6234375 173.939063,0 170.703125,0 L88.28125,0 C85.0453125,0 82.421875,2.6234375 82.421875,5.859375 L82.421875,23.4375 L41.40625,23.4375 C38.1703125,23.4375 35.546875,26.0609375 35.546875,29.296875 L35.546875,52.734375 C35.546875,55.9703125 38.1703125,58.59375 41.40625,58.59375 L58.984375,58.59375 L58.984375,105.859375 L5.859375,105.859375 C2.6234375,105.859375 0,108.482813 0,111.71875 L0,135.15625 C0,138.392188 2.6234375,141.015625 5.859375,141.015625 L11.71875,141.015625 L11.71875,188.28125 L5.859375,188.28125 C2.6234375,188.28125 0,190.904687 0,194.140625 C0,197.376563 2.6234375,200 5.859375,200 L194.140625,200 C197.376563,200 200,197.376563 200,194.140625 L200,29.296875 C200,26.0609375 197.376563,23.4375 194.140625,23.4375 Z M94.140625,11.71875 L164.84375,11.71875 L164.84375,23.4375 L94.140625,23.4375 L94.140625,11.71875 Z M129.6875,58.59375 L129.6875,82.421875 L70.703125,82.421875 L70.703125,58.59375 L129.6875,58.59375 Z M164.84375,58.59375 L164.84375,82.421875 L141.40625,82.421875 L141.40625,58.59375 L164.84375,58.59375 Z M23.4375,141.015625 L58.984375,141.015625 L58.984375,188.28125 L23.4375,188.28125 L23.4375,141.015625 Z M164.84375,141.015625 L164.84375,188.28125 L129.6875,188.28125 L129.6875,141.015625 L164.84375,141.015625 Z M117.96875,188.28125 L94.140625,188.28125 L94.140625,141.015625 L117.96875,141.015625 L117.96875,188.28125 Z M188.28125,188.28125 L176.5625,188.28125 L176.5625,135.15625 C176.5625,131.920313 173.939063,129.296875 170.703125,129.296875 L88.28125,129.296875 C85.0453125,129.296875 82.421875,131.920313 82.421875,135.15625 L82.421875,188.28125 L70.703125,188.28125 L70.703125,135.15625 C70.703125,131.920313 68.0796875,129.296875 64.84375,129.296875 L11.71875,129.296875 L11.71875,117.578125 L188.28125,117.578125 L188.28125,188.28125 Z M188.28125,105.859375 L70.703125,105.859375 L70.703125,94.140625 L170.703125,94.140625 C173.939062,94.140625 176.5625,91.5171875 176.5625,88.28125 L176.5625,52.734375 C176.5625,49.4984375 173.939062,46.875 170.703125,46.875 L47.265625,46.875 L47.265625,35.15625 L188.28125,35.15625 L188.28125,105.859375 Z" id="Shape"></path>
            <path d="M147.265625,176.5625 C150.501563,176.5625 153.125,173.939063 153.125,170.703125 L153.125,158.59375 C153.125,155.357812 150.501563,152.734375 147.265625,152.734375 C144.029687,152.734375 141.40625,155.357812 141.40625,158.59375 L141.40625,170.703125 C141.40625,173.939063 144.029687,176.5625 147.265625,176.5625 Z" id="Path"></path>
        </g>
    </g>
</svg>