<?xml version="1.0" encoding="UTF-8"?>
<svg width="200px" height="200px" viewBox="0 0 200 200" version="1.1" xmlns="http://www.w3.org/2000/svg" xmlns:xlink="http://www.w3.org/1999/xlink">
    <title>no-alt</title>
    <g id="no-alt" stroke="none" stroke-width="1" fill="none" fill-rule="evenodd">
        <g id="x-mark" fill="#000000" fill-rule="nonzero">
            <path d="M100,200 C44.8593141,200 0,155.140686 0,100 C0,44.8593141 44.8593141,0 100,0 C155.140686,0 200,44.8593141 200,100 C200,155.140686 155.140686,200 100,200 Z M100,14.2852781 C52.7374266,14.2852781 14.2852781,52.7374266 14.2852781,100 C14.2852781,147.262573 52.7374266,185.714722 100,185.714722 C147.262573,185.714722 185.714722,147.262573 185.714722,100 C185.714722,52.7374266 147.262573,14.2852781 100,14.2852781 Z" id="Shape"></path>
            <path d="M135.714722,142.857361 C133.886719,142.857361 132.058716,142.160034 130.664063,140.763855 L59.2361449,69.3359375 C56.4453125,66.5451051 56.4453125,62.0254516 59.2361449,59.2361449 C62.0254516,56.4468383 66.5466309,56.4453125 69.3359375,59.2361449 L140.763855,130.664063 C143.554688,133.454895 143.554688,137.974548 140.763855,140.763855 C139.369202,142.160034 137.542725,142.857361 135.714722,142.857361 L135.714722,142.857361 Z" id="Path"></path>
            <path d="M64.2852781,142.857361 C62.4572754,142.857361 60.6307984,142.160034 59.2361449,140.763855 C56.4453125,137.974548 56.4453125,133.453369 59.2361449,130.664063 L130.664063,59.2361449 C133.454895,56.4453125 137.974548,56.4453125 140.763855,59.2361449 C143.553162,62.0254516 143.554688,66.5466309 140.763855,69.3359375 L69.3359375,140.763855 C67.9412844,142.160034 66.1132813,142.857361 64.2852781,142.857361 L64.2852781,142.857361 Z" id="Path"></path>
        </g>
    </g>
</svg>