<?xml version="1.0" encoding="UTF-8"?>
<svg width="200px" height="200px" viewBox="0 0 200 200" version="1.1" xmlns="http://www.w3.org/2000/svg" xmlns:xlink="http://www.w3.org/1999/xlink">
    <title>other-home-alt</title>
    <g id="other-home-alt" stroke="none" stroke-width="1" fill="none" fill-rule="evenodd">
        <g id="house" transform="translate(0, 13.573)" fill="#000000" fill-rule="nonzero">
            <path d="M198.148047,45.7148921 L151.077734,1.58481444 C148.823828,-0.528076163 145.316797,-0.528076163 143.062891,1.58481444 L123.535156,19.8930174 L104.007422,1.58481444 C101.753516,-0.528076163 98.2464844,-0.528466788 95.9925781,1.58481444 L76.4648438,19.8926267 L56.9371094,1.58481444 C54.6832031,-0.528076163 51.1757812,-0.528076163 48.9222656,1.58481444 L1.85195312,45.7148921 C0.6703125,46.8227046 0,48.3699702 0,49.9895014 L0,167.567625 C0,170.803563 2.6234375,173.427 5.859375,173.427 L194.140625,173.427 C197.376563,173.427 200,170.803563 200,167.567625 L200,49.9895014 C200,48.3699702 199.329688,46.8227046 198.148047,45.7148921 Z M11.71875,52.5277826 L52.9296875,13.8910643 L67.8980469,27.9242673 L48.9222656,45.7145014 C47.7410156,46.8223139 47.0703125,48.3695795 47.0703125,49.9891108 L47.0703125,67.9578606 L29.4921875,67.9578606 C26.25625,67.9578606 23.6328125,70.581298 23.6328125,73.8172355 L23.6328125,97.2547352 C23.6328125,100.490673 26.25625,103.11411 29.4921875,103.11411 L47.0703125,103.11411 L47.0703125,114.83286 L29.4921875,114.83286 C26.25625,114.83286 23.6328125,117.456298 23.6328125,120.692235 L23.6328125,144.129735 C23.6328125,147.365672 26.25625,149.98911 29.4921875,149.98911 L47.0703125,149.98911 L47.0703125,161.70786 L11.71875,161.70786 L11.71875,52.5277826 Z M47.0703125,91.3957509 L35.3515625,91.3957509 L35.3515625,79.6770011 L47.0703125,79.6770011 L47.0703125,91.3957509 Z M47.0703125,138.27075 L35.3515625,138.27075 L35.3515625,126.552001 L47.0703125,126.552001 L47.0703125,138.27075 Z M58.7890625,52.5281732 L100,13.8914549 L141.210938,52.5281732 L141.210938,161.70825 L117.578125,161.70825 L117.578125,138.27075 L119.726562,138.27075 C122.9625,138.27075 125.585937,135.647313 125.585937,132.411375 C125.585937,129.175438 122.9625,126.552001 119.726562,126.552001 L80.2734375,126.552001 C77.0375,126.552001 74.4140625,129.175438 74.4140625,132.411375 C74.4140625,135.647313 77.0375,138.27075 80.2734375,138.27075 L82.421875,138.27075 L82.421875,161.70825 L58.7890625,161.70825 L58.7890625,52.5281732 Z M152.929688,126.552001 L164.648438,126.552001 L164.648438,138.27075 L152.929688,138.27075 L152.929688,126.552001 Z M152.929688,79.6770011 L164.648438,79.6770011 L164.648438,91.3957509 L152.929688,91.3957509 L152.929688,79.6770011 Z M105.859375,138.27075 L105.859375,161.70825 L94.140625,161.70825 L94.140625,138.27075 L105.859375,138.27075 Z M188.28125,161.70825 L152.929688,161.70825 L152.929688,149.9895 L170.507812,149.9895 C173.74375,149.9895 176.367187,147.366063 176.367187,144.130125 L176.367187,120.692626 C176.367187,117.456688 173.74375,114.833251 170.507812,114.833251 L152.929688,114.833251 L152.929688,103.114501 L170.507812,103.114501 C173.74375,103.114501 176.367187,100.491063 176.367187,97.2551259 L176.367187,73.8176261 C176.367187,70.5816887 173.74375,67.9582512 170.507812,67.9582512 L152.929688,67.9582512 L152.929688,49.9895014 C152.929688,48.3699702 152.259375,46.8227046 151.077734,45.7148921 L132.101953,27.9246579 L147.070313,13.8914549 L188.28125,52.5281732 L188.28125,161.70825 Z" id="Shape"></path>
            <path d="M80.2734375,103.114501 L119.726562,103.114501 C122.9625,103.114501 125.585938,100.491063 125.585938,97.2551259 C125.585938,94.0191884 122.9625,91.3957509 119.726562,91.3957509 L117.578125,91.3957509 L117.578125,73.8176261 C117.578125,70.5816887 114.954687,67.9582512 111.71875,67.9582512 L88.28125,67.9582512 C85.0453125,67.9582512 82.421875,70.5816887 82.421875,73.8176261 L82.421875,91.3957509 L80.2734375,91.3957509 C77.0375,91.3957509 74.4140625,94.0191884 74.4140625,97.2551259 C74.4140625,100.491063 77.0375,103.114501 80.2734375,103.114501 Z M94.140625,79.6770011 L105.859375,79.6770011 L105.859375,91.3957509 L94.140625,91.3957509 L94.140625,79.6770011 Z" id="Shape"></path>
        </g>
    </g>
</svg>