<?xml version="1.0" encoding="UTF-8"?>
<svg width="200px" height="200px" viewBox="0 0 200 200" version="1.1" xmlns="http://www.w3.org/2000/svg" xmlns:xlink="http://www.w3.org/1999/xlink">
    <title>solar-alt</title>
    <g id="solar-alt" stroke="none" stroke-width="1" fill="none" fill-rule="evenodd">
        <g id="001-solar-panel" transform="translate(0, -0)" fill="#1B1819" fill-rule="nonzero">
            <path d="M199.824851,160.688281 L184.199875,98.1882813 C183.547923,95.5800781 181.204176,93.75 178.515508,93.75 L21.4844918,93.75 C18.795824,93.75 16.4520774,95.5800781 15.8001253,98.1882813 L0.175148538,160.688281 C-0.262741435,162.438672 0.130617354,164.293359 1.24116258,165.715234 C2.3517078,167.1375 4.05522089,167.96875 5.85951508,167.96875 L76.9144875,167.96875 L71.960198,188.28125 L60.9375581,188.28125 C57.7016254,188.28125 55.0781918,190.904687 55.0781918,194.140625 C55.0781918,197.376563 57.7016254,200 60.9375581,200 L139.062442,200 C142.298375,200 144.921808,197.376563 144.921808,194.140625 C144.921808,190.904687 142.298375,188.28125 139.062442,188.28125 L128.039411,188.28125 L123.085122,167.96875 L194.140485,167.96875 C195.944779,167.96875 197.648292,167.1375 198.758837,165.715234 C199.869383,164.293359 200.262741,162.439062 199.824851,160.688281 L199.824851,160.688281 Z M105.859366,105.46875 L134.085496,105.46875 L136.526899,125 L105.859366,125 L105.859366,105.46875 Z M65.9148945,105.46875 L94.1406337,105.46875 L94.1406337,125 L63.4731012,125 L65.9148945,105.46875 Z M47.7574996,156.25 L13.3641914,156.25 L18.2469966,136.71875 L50.1989022,136.71875 L47.7574996,156.25 Z M51.6637438,125 L21.1766798,125 L26.059485,105.46875 L54.1051464,105.46875 L51.6637438,125 Z M59.5672477,156.25 L62.0086503,136.71875 L94.1406337,136.71875 L94.1406337,156.25 L59.5672477,156.25 Z M84.0230706,188.28125 L88.9773602,167.96875 L111.02303,167.96875 L115.97732,188.28125 L84.0230706,188.28125 Z M105.859366,156.25 L105.859366,136.71875 L137.99174,136.71875 L140.433143,156.25 L105.859366,156.25 Z M145.894854,105.46875 L173.940515,105.46875 L178.82332,125 L148.336256,125 L145.894854,105.46875 Z M152.2425,156.25 L149.801098,136.71875 L181.753003,136.71875 L186.635809,156.25 L152.2425,156.25 Z" id="Shape"></path>
            <path d="M41.4063372,70.3125 L59.4242791,70.3125 C59.8129504,72.9476563 60.4547463,75.5609375 61.3629481,78.1269531 C62.1914625,80.4667969 64.4043498,82.03125 66.886768,82.03125 L133.113232,82.03125 C135.59526,82.03125 137.808537,80.4671875 138.637052,78.1269531 C139.545254,75.5609375 140.18705,72.9472656 140.575721,70.3125 L158.593663,70.3125 C161.829595,70.3125 164.453029,67.6890625 164.453029,64.453125 C164.453029,61.2171875 161.829595,58.59375 158.593663,58.59375 L140.595252,58.59375 C139.598379,51.6550781 136.860883,45.2710937 132.83667,39.9027344 L145.575323,27.1644531 C147.863601,24.8765625 147.863601,21.1664062 145.575323,18.878125 C143.287826,16.5902344 139.577675,16.5898437 137.289007,18.878125 L124.550745,31.6164063 C119.182393,27.5925781 112.798418,24.8546875 105.859366,23.8578125 L105.859366,5.859375 C105.859366,2.6234375 103.235933,5.55111512e-15 100,5.55111512e-15 C96.7640673,5.55111512e-15 94.1406337,2.6234375 94.1406337,5.859375 L94.1406337,23.8578125 C87.2019722,24.8546875 80.8179973,27.5921875 75.4496459,31.6164063 L62.7113836,18.878125 C60.4234964,16.5898437 56.7133457,16.5898437 54.4250678,18.878125 C52.13679,21.1664062 52.13679,24.8761719 54.4250678,27.1644531 L67.1637207,39.9027344 C63.1398986,45.2710938 60.402012,51.6550781 59.4051385,58.59375 L41.4063372,58.59375 C38.1704045,58.59375 35.5469709,61.2171875 35.5469709,64.453125 C35.5469709,67.6890625 38.1704045,70.3125 41.4063372,70.3125 L41.4063372,70.3125 Z M100,35.15625 C116.154273,35.15625 129.296831,48.2988281 129.296831,64.453125 C129.296831,66.4105469 129.092144,68.3699219 128.686285,70.3125 L71.3141052,70.3125 C70.9082464,68.3699219 70.7035592,66.4105469 70.7035592,64.453125 C70.7035592,48.2988281 83.8457272,35.15625 100,35.15625 Z" id="Shape"></path>
        </g>
    </g>
</svg>