<?xml version="1.0" encoding="UTF-8"?>
<svg width="30px" height="30px" viewBox="0 0 30 30" version="1.1" xmlns="http://www.w3.org/2000/svg" xmlns:xlink="http://www.w3.org/1999/xlink">
    <title>solar-alt-icon</title>
    <g id="solar-alt-icon" stroke="none" stroke-width="1" fill="none" fill-rule="evenodd">
        <g id="001-solar-panel" fill="#1B1819" fill-rule="nonzero">
            <path d="M29.9737277,24.1032422 L27.6299812,14.7282422 C27.5321884,14.3370117 27.1806264,14.0625 26.7773262,14.0625 L3.22267377,14.0625 C2.81937359,14.0625 2.46781162,14.3370117 2.37001879,14.7282422 L0.0262722807,24.1032422 C-0.0394112153,24.3658008 0.0195926031,24.6440039 0.186174387,24.8572852 C0.35275617,25.070625 0.608283133,25.1953125 0.878927262,25.1953125 L11.5371731,25.1953125 L10.7940297,28.2421875 L9.14063372,28.2421875 C8.65524382,28.2421875 8.26172878,28.6357031 8.26172878,29.1210938 C8.26172878,29.6064844 8.65524382,30 9.14063372,30 L20.8593663,30 C21.3447562,30 21.7382712,29.6064844 21.7382712,29.1210938 C21.7382712,28.6357031 21.3447562,28.2421875 20.8593663,28.2421875 L19.2059117,28.2421875 L18.4627683,25.1953125 L29.1210727,25.1953125 C29.3917169,25.1953125 29.6472438,25.070625 29.8138256,24.8572852 C29.9804074,24.6440039 30.0394112,24.3658594 29.9737277,24.1032422 L29.9737277,24.1032422 Z M15.8789049,15.8203125 L20.1128244,15.8203125 L20.4790348,18.75 L15.8789049,18.75 L15.8789049,15.8203125 Z M9.88723417,15.8203125 L14.1210951,15.8203125 L14.1210951,18.75 L9.52096518,18.75 L9.88723417,15.8203125 Z M7.16362494,23.4375 L2.00462871,23.4375 L2.7370495,20.5078125 L7.52983533,20.5078125 L7.16362494,23.4375 Z M7.74956157,18.75 L3.17650197,18.75 L3.90892275,15.8203125 L8.11577196,15.8203125 L7.74956157,18.75 Z M8.93508715,23.4375 L9.30129754,20.5078125 L14.1210951,20.5078125 L14.1210951,23.4375 L8.93508715,23.4375 Z M12.6034606,28.2421875 L13.346604,25.1953125 L16.6534546,25.1953125 L17.396598,28.2421875 L12.6034606,28.2421875 Z M15.8789049,23.4375 L15.8789049,20.5078125 L20.6987611,20.5078125 L21.0649714,23.4375 L15.8789049,23.4375 Z M21.884228,15.8203125 L26.0910772,15.8203125 L26.823498,18.75 L22.2504384,18.75 L21.884228,15.8203125 Z M22.8363751,23.4375 L22.4701647,20.5078125 L27.2629505,20.5078125 L27.9953713,23.4375 L22.8363751,23.4375 Z" id="Shape"></path>
            <path d="M6.21095058,10.546875 L8.91364187,10.546875 C8.97194256,10.9421484 9.06821195,11.3341406 9.20444222,11.719043 C9.32871938,12.0700195 9.66065248,12.3046875 10.0330152,12.3046875 L19.9669848,12.3046875 C20.3392889,12.3046875 20.6712806,12.0700781 20.7955578,11.719043 C20.931788,11.3341406 21.0280574,10.9420898 21.0863581,10.546875 L23.7890494,10.546875 C24.2744393,10.546875 24.6679544,10.1533594 24.6679544,9.66796875 C24.6679544,9.18257813 24.2744393,8.7890625 23.7890494,8.7890625 L21.0892878,8.7890625 C20.9397568,7.74826172 20.5291324,6.79066406 19.9255005,5.98541016 L21.8362984,4.07466797 C22.1795401,3.73148438 22.1795401,3.17496094 21.8362984,2.83171875 C21.4931739,2.48853516 20.9366513,2.48847656 20.5933511,2.83171875 L18.6826117,4.74246094 C17.877359,4.13888672 16.9197628,3.72820312 15.8789049,3.57867187 L15.8789049,0.87890625 C15.8789049,0.393515625 15.4853899,0 15,0 C14.5146101,0 14.1210951,0.393515625 14.1210951,0.87890625 L14.1210951,3.57867187 C13.0802958,3.72820312 12.1226996,4.13882813 11.3174469,4.74246094 L9.40670754,2.83171875 C9.06352446,2.48847656 8.50700185,2.48847656 8.16376017,2.83171875 C7.8205185,3.17496094 7.8205185,3.73142578 8.16376017,4.07466797 L10.0745581,5.98541016 C9.47098479,6.79066406 9.06030181,7.74826172 8.91077078,8.7890625 L6.21095058,8.7890625 C5.72556068,8.7890625 5.33204564,9.18257813 5.33204564,9.66796875 C5.33204564,10.1533594 5.72556068,10.546875 6.21095058,10.546875 L6.21095058,10.546875 Z M15,5.2734375 C17.4231409,5.2734375 19.3945247,7.24482422 19.3945247,9.66796875 C19.3945247,9.96158203 19.3638216,10.2554883 19.3029428,10.546875 L10.6971158,10.546875 C10.636237,10.2554883 10.6055339,9.96158203 10.6055339,9.66796875 C10.6055339,7.24482422 12.5768591,5.2734375 15,5.2734375 Z" id="Shape"></path>
        </g>
    </g>
</svg>