<?xml version="1.0" encoding="UTF-8"?>
<svg width="200px" height="200px" viewBox="0 0 200 200" version="1.1" xmlns="http://www.w3.org/2000/svg" xmlns:xlink="http://www.w3.org/1999/xlink">
    <title>solar-bat-ev-alt</title>
    <g id="solar-bat-ev-alt" stroke="none" stroke-width="1" fill="none" fill-rule="evenodd">
        <path d="M102.029412,20 C104.383885,20 106.294118,21.9060971 106.294118,24.255807 L106.294118,126.408449 C106.294118,128.759265 104.383885,130.665362 102.029412,130.665362 L67.9117647,130.665362 L67.9117647,140.880626 C67.9117647,144.792384 71.1002988,147.974006 75.0196078,147.974006 L100.262446,147.974006 L99.0141314,146.727244 C97.3482306,145.065632 97.3482306,142.370767 99.0141314,140.708049 C100.678922,139.046437 103.379902,139.046437 105.044692,140.708049 L112.324678,147.975113 L129.039216,147.975113 C132.958525,147.975113 136.147059,144.792384 136.147059,140.880626 L136.147059,130.949672 L124.77451,130.949672 C119.287033,130.949672 114.823529,126.493631 114.823529,121.017612 L114.823529,47.2407045 C114.823529,41.7646855 119.287033,37.3086447 124.77451,37.3086447 L126.196078,37.3086447 L126.196078,24.5401174 C126.196078,22.1893013 128.105201,20.2843104 130.460784,20.2843104 L150.362745,20.2843104 C152.717218,20.2843104 154.627451,22.1893013 154.627451,24.5401174 L154.627451,37.3086447 L156.04902,37.3086447 C161.535386,37.3086447 166,41.7646855 166,47.2407045 L166,121.017612 C166,126.493631 161.535386,130.948566 156.04902,130.948566 L144.676471,130.948566 L144.676471,140.880626 C144.676471,149.486273 137.660807,156.486727 129.039216,156.486727 L112.324678,156.486727 L105.044692,163.753791 C103.378791,165.415403 100.678922,165.415403 99.0130208,163.753791 C97.3482306,162.091072 97.3482306,159.396208 99.0130208,157.734595 L100.262446,156.487833 L75.0196078,156.487833 C66.3969056,156.487833 59.3823529,149.486273 59.3823529,140.880626 L59.3823529,130.665362 L25.2647059,130.665362 C22.9091223,130.665362 21,128.759265 21,126.409555 L21,24.255807 C21,21.9060971 22.9091223,20 25.2647059,20 Z M156.04902,45.8224711 L124.77451,45.8224711 C123.990426,45.8224711 123.352941,46.4585741 123.352941,47.2407045 L123.352941,121.017612 C123.352941,121.800849 123.990426,122.436952 124.77451,122.436952 L156.04902,122.436952 C156.833103,122.436952 157.470588,121.800849 157.470588,121.017612 L157.470588,47.2407045 C157.470588,46.4585741 156.833103,45.8224711 156.04902,45.8224711 Z M72.1764706,105.127202 L55.1176471,105.127202 L55.1176471,122.152642 L72.1764706,122.152642 L72.1764706,105.127202 Z M97.7647059,105.127202 L80.7058824,105.127202 L80.7058824,122.152642 L97.7647059,122.152642 L97.7647059,105.127202 Z M46.5882353,105.127202 L29.5294118,105.127202 L29.5294118,122.152642 L46.5882353,122.152642 L46.5882353,105.127202 Z M141.330042,65.3314581 C142.330044,63.2486164 144.759975,62.4049613 146.758926,63.4458342 C148.757877,64.4867074 149.568205,67.018768 148.569257,69.1016097 L143.403808,79.8620453 L144.949649,79.8620453 C147.98759,79.8620453 149.943337,83.231187 148.533429,86.0338745 L139.631408,103.739672 C138.595578,105.801697 136.149841,106.598239 134.169857,105.517922 C132.189874,104.437605 131.425911,101.890205 132.462794,99.8270857 L138.262596,88.2942125 C136.906428,88.2942125 134.755739,88.5549787 133.414324,86.2946407 C132.677757,85.0521669 132.610318,83.4996226 133.237295,82.1936009 Z M97.7647059,79.589041 L80.7058824,79.589041 L80.7058824,96.6144815 L97.7647059,96.6144815 L97.7647059,79.589041 Z M46.5882353,79.589041 L29.5294118,79.589041 L29.5294118,96.6144815 L46.5882353,96.6144815 L46.5882353,79.589041 Z M72.1764706,79.589041 L55.1176471,79.589041 L55.1176471,96.6144815 L72.1764706,96.6144815 L72.1764706,79.589041 Z M72.1764706,54.0508806 L55.1176471,54.0508806 L55.1176471,71.0763208 L72.1764706,71.0763208 L72.1764706,54.0508806 Z M97.7647059,54.0508806 L80.7058824,54.0508806 L80.7058824,71.0763208 L97.7647059,71.0763208 L97.7647059,54.0508806 Z M46.5882353,54.0508806 L29.5294118,54.0508806 L29.5294118,71.0763208 L46.5882353,71.0763208 L46.5882353,54.0508806 Z M72.1764706,28.5127202 L55.1176471,28.5127202 L55.1176471,45.5381604 L72.1764706,45.5381604 L72.1764706,28.5127202 Z M97.7647059,28.5127202 L80.7058824,28.5127202 L80.7058824,45.5381604 L97.7647059,45.5381604 L97.7647059,28.5127202 Z M46.5882353,28.5127202 L29.5294118,28.5127202 L29.5294118,45.5381604 L46.5882353,45.5381604 L46.5882353,28.5127202 Z M146.098039,28.7970306 L134.72549,28.7970306 L134.72549,37.3097509 L146.098039,37.3097509 L146.098039,28.7970306 Z" id="Combined-Shape" fill="#1B1819" fill-rule="nonzero"></path>
        <path d="M181.409882,0.149902344 C183.619021,0.149902344 185.409882,1.94076334 185.409882,4.14990234 L185.409882,175.149902 C185.409882,177.359041 183.619021,179.149902 181.409882,179.149902 L58.6644287,179.149902 C56.4552897,179.149902 54.6644287,177.359041 54.6644287,175.149902 C54.6644287,172.940763 56.4552897,171.149902 58.6644287,171.149902 L175.409429,171.149902 C176.513998,171.149902 177.409429,170.254472 177.409429,169.149902 L177.409429,10.1499023 C177.409429,9.04533284 176.513998,8.14990234 175.409429,8.14990234 L146.197429,8.14977651 C145.092859,8.14977651 144.197429,9.04520701 144.197429,10.1497765 C144.197429,10.1498185 144.197429,10.1498604 144.197429,10.1499023 L144.198377,23.2223404 L144.198377,23.2223404 C144.198377,25.3645358 142.514409,27.1134192 140.398017,27.2174451 L140.198377,27.2223404 C137.989238,27.2223404 136.198377,25.4314794 136.198377,23.2223404 L136.198377,4.14990234 C136.198377,1.94076334 137.989238,0.149902344 140.198377,0.149902344 L181.409882,0.149902344 Z" id="Path-2" fill="#1B1819" fill-rule="nonzero"></path>
        <path d="M21.8409028,152.349818 L39.5978033,152.511041 C45.8846012,152.56806 51.7861371,155.082893 56.2149785,159.592837 C58.5096182,161.929749 60.2563654,164.654107 61.404042,167.609777 L61.404042,182.231049 C60.474041,187.678276 59.7399712,188.842103 55.9116562,192.952666 C52.0833413,197.063228 45.4559902,199.788554 39.1691924,199.731536 L21.4122919,199.570313 C18.5800574,199.544937 16.2361866,197.511916 15.718049,194.834924 L6.23453924,194.748873 C3.00156543,194.71982 0.404667129,192.075074 0.433727151,188.842103 C0.462018306,185.587055 3.14203395,183.005441 6.34073286,183.041607 L15.7066831,183.126454 L15.8376103,168.687194 L6.47198363,168.602128 C3.23900982,168.573075 0.642111522,165.928329 0.671495095,162.69514 C0.698920909,159.440205 3.37980189,156.858478 6.57817725,156.894862 L16.0636359,156.981011 C16.30181,155.867083 16.8607325,154.837149 17.6859323,154.026808 C18.7851452,152.945024 20.2874057,152.333761 21.8409028,152.349818 Z M30.4077583,163.907972 L21.6511077,163.907972 C20.6082956,163.907972 19.7628676,164.753398 19.7628676,165.796207 L19.7628676,186.01896 C19.7628676,187.061769 20.6082956,187.907195 21.6511077,187.907195 L30.4077583,187.907195 C32.9104318,187.814294 32.9085435,184.222744 30.4077583,184.130724 L23.5393478,184.130724 L23.5393478,177.795819 L30.3794347,177.795819 C32.8821082,177.702918 32.8802199,174.111368 30.3794347,174.019348 L23.5393478,174.019348 L23.5393478,167.684443 L30.4077583,167.684443 C32.9104318,167.591542 32.9085435,163.999992 30.4077583,163.907972 Z M51.9052462,165.119967 L45.9128532,180.745495 L39.9204603,165.119967 C39.5469664,164.146267 38.4549342,163.659228 37.4812317,164.033099 C36.5075292,164.406466 36.0208668,165.498621 36.3942348,166.472196 L44.1496146,186.694948 C44.7620338,188.30083 47.0637985,188.3002 47.6758401,186.694948 L55.4312199,166.472196 C55.8047138,165.498621 55.3181772,164.406466 54.3444748,164.033099 C53.3703946,163.659606 52.2787401,164.146267 51.9052462,165.119967 Z" id="Combined-Shape" fill="#1B1819"></path>
    </g>
</svg>