<?xml version="1.0" encoding="UTF-8"?>
<svg width="294px" height="240px" viewBox="0 0 294 240" version="1.1" xmlns="http://www.w3.org/2000/svg" xmlns:xlink="http://www.w3.org/1999/xlink">
    <title>Shape</title>
    <g id="2025-Web-update" stroke="none" stroke-width="1" fill="none" fill-rule="evenodd">
        <g id="2" transform="translate(-233, -357)" fill="#FFFFFF" fill-rule="nonzero">
            <path d="M286.981968,357 C272.685139,357 260.403884,367.078111 257.59139,381.093751 L233.591352,501.093751 C229.888224,519.656227 244.044506,537 262.981977,537 L364.700737,537 L364.700737,566.999977 L334.700714,566.999977 C326.40387,566.999977 319.700726,573.703121 319.700726,582.000012 C319.700726,590.296902 326.40387,597 334.700714,597 L424.700737,597 C432.997628,597 439.700726,590.296855 439.700726,582.000012 C439.700726,573.703168 432.997628,566.999977 424.700737,566.999977 L394.700714,566.999977 L394.700714,537 L496.419474,537 C515.356992,537 529.560108,519.703107 525.856979,501.093751 L501.856989,381.093751 C498.997614,367.078111 486.716359,357 472.419483,357 L286.981968,357 L286.981968,357 Z M351.997607,387.000023 L407.403845,387.000023 L412.278842,435.749997 L347.122609,435.749997 L351.997607,387.000023 L351.997607,387.000023 Z M324.528843,435.749997 L277.231973,435.749997 L286.981968,387.000023 L329.357006,387.000023 L324.528843,435.749997 L324.528843,435.749997 Z M272.731972,458.250003 L322.278865,458.250003 L317.403868,506.999977 L262.981977,506.999977 L272.731972,458.250003 Z M344.872632,458.250003 L414.528866,458.250003 L419.403863,506.999977 L339.997635,506.999977 L344.872632,458.250003 Z M437.122633,458.250003 L486.669479,458.250003 L496.419474,506.999977 L442.04451,506.999977 L437.122633,458.250003 Z M482.122597,435.749997 L434.872609,435.749997 L429.997611,387.000023 L472.372603,387.000023 L487.091356,384.046887 L472.419483,387.000023 L482.169478,435.749997 L482.122597,435.749997 Z" id="Shape"></path>
        </g>
    </g>
</svg>