<?xml version="1.0" encoding="UTF-8"?>
<svg width="200px" height="200px" viewBox="0 0 200 200" version="1.1" xmlns="http://www.w3.org/2000/svg" xmlns:xlink="http://www.w3.org/1999/xlink">
    <title>solar-bat-alt</title>
    <g id="solar-bat-alt" stroke="none" stroke-width="1" fill="none" fill-rule="evenodd">
        <path d="M111.764706,0 C115.012255,0 117.647059,2.62909948 117.647059,5.87007864 L117.647059,146.770274 C117.647059,150.012779 115.012255,152.641879 111.764706,152.641879 L64.7058824,152.641879 L64.7058824,166.731898 C64.7058824,172.127426 69.1038604,176.515871 74.5098039,176.515871 L109.327512,176.515871 L107.605698,174.796199 C105.307904,172.50432 105.307904,168.787265 107.605698,166.49386 C109.901961,164.201981 113.627451,164.201981 115.923713,166.49386 L125.965074,176.517397 L149.019608,176.517397 C154.425551,176.517397 158.823529,172.127426 158.823529,166.731898 L158.823529,153.034031 L143.137255,153.034031 C135.568321,153.034031 129.411765,146.887767 129.411765,139.334638 L129.411765,37.5733855 C129.411765,30.0202559 135.568321,23.8739926 143.137255,23.8739926 L145.098039,23.8739926 L145.098039,6.26223092 C145.098039,3.01972597 147.731311,0.392152277 150.980392,0.392152277 L178.431373,0.392152277 C181.678922,0.392152277 184.313725,3.01972597 184.313725,6.26223092 L184.313725,23.8739926 L186.27451,23.8739926 C193.841912,23.8739926 200,30.0202559 200,37.5733855 L200,139.334638 C200,146.887767 193.841912,153.032505 186.27451,153.032505 L170.588235,153.032505 L170.588235,166.731898 C170.588235,178.601755 160.911458,188.257554 149.019608,188.257554 L125.965074,188.257554 L115.923713,198.281091 C113.625919,200.57297 109.901961,200.57297 107.604167,198.281091 C105.307904,195.987686 105.307904,192.270631 107.604167,189.978752 L109.327512,188.25908 L74.5098039,188.25908 C62.6164216,188.25908 52.9411765,178.601755 52.9411765,166.731898 L52.9411765,152.641879 L5.88235294,152.641879 C2.63327216,152.641879 0,150.012779 0,146.7718 L0,5.87007864 C0,2.62909948 2.63327216,0 5.88235294,0 Z M186.27451,35.6172015 L143.137255,35.6172015 C142.05576,35.6172015 141.176471,36.4945849 141.176471,37.5733855 L141.176471,139.334638 C141.176471,140.414965 142.05576,141.292348 143.137255,141.292348 L186.27451,141.292348 C187.356005,141.292348 188.235294,140.414965 188.235294,139.334638 L188.235294,37.5733855 C188.235294,36.4945849 187.356005,35.6172015 186.27451,35.6172015 Z M70.5882353,117.41683 L47.0588235,117.41683 L47.0588235,140.900196 L70.5882353,140.900196 L70.5882353,117.41683 Z M105.882353,117.41683 L82.3529412,117.41683 L82.3529412,140.900196 L105.882353,140.900196 L105.882353,117.41683 Z M35.2941176,117.41683 L11.7647059,117.41683 L11.7647059,140.900196 L35.2941176,140.900196 L35.2941176,117.41683 Z M166.001833,62.2531973 C167.420695,59.3469067 170.868425,58.1697135 173.704654,59.6220943 C176.540883,61.0744754 177.690625,64.6075833 176.273258,67.5138739 L168.944215,82.5284354 L171.137545,82.5284354 C175.447956,82.5284354 178.222885,87.2295633 176.222424,91.14029 L163.591711,115.846055 C162.122015,118.723298 158.651858,119.834752 155.842541,118.327333 C153.033224,116.819914 151.949268,113.265403 153.420459,110.386631 L161.649559,94.29425 C159.725349,94.29425 156.673824,94.6581098 154.770545,91.5041498 C153.725461,89.7704654 153.629774,87.6041246 154.519366,85.7817687 Z M105.882353,82.1917807 L82.3529412,82.1917807 L82.3529412,105.675147 L105.882353,105.675147 L105.882353,82.1917807 Z M35.2941176,82.1917807 L11.7647059,82.1917807 L11.7647059,105.675147 L35.2941176,105.675147 L35.2941176,82.1917807 Z M70.5882353,82.1917807 L47.0588235,82.1917807 L47.0588235,105.675147 L70.5882353,105.675147 L70.5882353,82.1917807 Z M70.5882353,46.9667319 L47.0588235,46.9667319 L47.0588235,70.4500976 L70.5882353,70.4500976 L70.5882353,46.9667319 Z M105.882353,46.9667319 L82.3529412,46.9667319 L82.3529412,70.4500976 L105.882353,70.4500976 L105.882353,46.9667319 Z M35.2941176,46.9667319 L11.7647059,46.9667319 L11.7647059,70.4500976 L35.2941176,70.4500976 L35.2941176,46.9667319 Z M70.5882353,11.7416831 L47.0588235,11.7416831 L47.0588235,35.2250488 L70.5882353,35.2250488 L70.5882353,11.7416831 Z M105.882353,11.7416831 L82.3529412,11.7416831 L82.3529412,35.2250488 L105.882353,35.2250488 L105.882353,11.7416831 Z M35.2941176,11.7416831 L11.7647059,11.7416831 L11.7647059,35.2250488 L35.2941176,35.2250488 L35.2941176,11.7416831 Z M172.54902,12.1338353 L156.862745,12.1338353 L156.862745,23.8755184 L172.54902,23.8755184 L172.54902,12.1338353 Z" id="Combined-Shape" fill="#1B1819" fill-rule="nonzero"></path>
    </g>
</svg>