<svg id="icon" enable-background="new 0 0 512 512" viewBox="0 0 512 512" xmlns="http://www.w3.org/2000/svg"><g fill="#231f20"><path d="m194.5507355 169.0212555c11.9624023 10.0837402 29.8342285 8.5610352 39.918457-3.4013672l-43.3195801-36.5175781c-10.0839843 11.9624023-8.560791 29.8347168 3.4011231 39.9189453z"/><path d="m240.4291534 163.5529938 3.8652344 3.2583008 3.3408203-3.963623-4.7758789-4.0263672c6.3898926-14.331543 4.2592773-30.3132324-6.5068359-39.388916-11.96875-10.0888672-30.5559082-8.2512207-44.1740723 3.4462891l30.5974121 25.793457z"/><path d="m157.119339 286.7175293c-.2590332-2.9621582-.953125-5.8178711-2.0056152-8.4787598-.6044922-2.8417969-1.7507324-5.5588379-3.5927734-7.9824219-7.8874512-10.3776855-15.7749023-20.7553558-23.66259-31.1330414.4758224-.6850586.9428635-1.3759766 1.4147873-2.064209.2678223-.3891602 1.0786133-1.4260254 1.6188965-2.1162109 9.3618164-11.3349609 18.763916-19.7658691 31.036377-25.401123-1.0246582-1.4697266-2.0588379-2.9477539-3.072998-4.4069824-3.916748-5.6374512-7.9685059-11.4689941-12.0253906-17.079834-6.6105957-9.1450195-2.670166-18.3359375 3.7880859-23.0053711 7.9709473-5.7607422 20.4467773-5.8649902 27.5219727 3.9262695l11.7097168 16.2004395c3.4143066-18.3742676-10.701416-40.1318359-33.7285156-32.932373-36.3276291 11.3588867-69.8037033 39.5532227-85.7414474 74.6137695-2.3354492 5.1357422-4.135498 11.3869629-3.786377 17.3537598-3.5007362 9.9533691-7.0017128 19.9062347-10.5024452 29.8596039-2.3920898 6.8012695-4.7834473 13.6020508-7.1757813 20.4025879-.4611816 1.3103027-1.5217285 4.0195313-1.5217285 4.0195313l-24.2485332 69.3208008c-11.2146006 22.642334 22.7487774 42.6223145 34.0129395 19.8815918 0 0 23.1777382-45.3847656 33.1574745-66.8771973 3.9018555-8.4038086 7.2302246-17.1450195 10.3222656-26.0014648l13.2558594-32.0578613-9.5134277 36.255127c2.7775879 3.0402832 6.0539551 6.5681152 6.0539551 6.5681152l15.2641602 73.8566895c.9262695 10.5961914 8.3896408 19.6950684 19.6950607 19.6950684 9.9367676 0 20.6269531-9.0371094 19.6950684-19.6950684-.0000024-.0000003-5.3432641-62.6823733-7.9689965-92.7214358z"/><path d="m293.5878601 314.6015625-3.2775879-7.7097168h-19.9470215l3.2778321 7.7097168z"/><path d="m255.7987823 332.2233887 3.2773591 7.7094726h19.9470214l-3.2763671-7.7094726z"/><path d="m253.6918488 327.2661133h19.9465484l-3.276123-7.7072754h-19.9467926z"/><path d="m268.2550964 314.6015625-3.2773437-7.7097168h-19.9470368l3.2775879 7.7097168z"/><path d="m279.0243835 327.2661133h19.9467774l-3.2761231-7.7072754h-19.9470214z"/><path d="m239.6449738 306.8918457h-19.9482422l3.277832 7.7097168h19.9477539z"/><path d="m281.1315613 332.2233887 3.2773437 7.7094726h19.9470215l-3.2775879-7.7094726z"/><path d="m306.464325 332.2233887 3.2773437 7.7094726h19.947998l-3.2775878-7.7094726z"/><path d="m318.9218445 314.6015625-3.2775879-7.7097168h-19.9479981l3.2773438 7.7097168z"/><path d="m344.254364 314.6015625-3.2773437-7.7097168h-19.9467774l3.2773438 7.7097168z"/><path d="m329.6908875 327.2661133h19.9470214l-3.276123-7.7072754h-19.9472656z"/><path d="m245.0294952 319.5588379h-19.947998l3.2763672 7.7072754h19.947998z"/><path d="m331.7980652 332.2233887 3.2775879 7.7094726h19.9467773l-3.2763672-7.7094726z"/><path d="m304.3571472 327.2661133h19.9479981l-3.2761231-7.7072754h-19.9482422z"/><path d="m340.4613953 352.6000977h19.9455566l-3.276123-7.7097168h-19.9470215z"/><path d="m317.2345886 357.557373 3.2775879 7.7094727h19.9477539l-3.2770996-7.7094727z"/><path d="m331.7980652 344.8903809h-19.9482422l3.2775879 7.7097168h19.9482422z"/><path d="m345.8461609 365.2668457h19.9453125l-3.2761231-7.7094727h-19.9470214z"/><path d="m252.1686554 279.8994141c.027832-2.6745605.1359863-5.2624512.3173828-7.7663574 13.3303375-.2900391 22.0341949-19.9433441 7.6098785-27.5102386-.5390625-.282959-1.0788574-.565918-1.6188965-.848877.3100586-.822998.6281738-1.6271973.9538574-2.4206543 11.067627-8.307373 22.3552246-11.5437012 30.8347168-12.7250977l2.7026367 7.0959473h17.0227051l-22.7426758 41.2038422h25.3786621l22.7426758-41.2038422h155.7255859l-42.1132811-110.5700684h-198.1272125l30.8371735 80.9643555c-7.3937988 5.4863281-18.2617188 15.942627-25.5512695 33.4550781-.7497711.581543-1.4970856 1.1721191-2.2419586 1.798584-6.8032227-3.5690918-13.6057129-7.1376953-20.407959-10.7062988-6.2304688-3.2683105-12.4611816-6.5366211-18.6923828-9.8059082-1.1958008-.626709-2.4436035-1.3916016-3.7089844-2.057373l-6.7709961-7.6901855c-3.7502441-5.1875-7.4997559-10.3747559-11.2497559-15.5620117-5.9111328-8.1774902-11.8220215-16.3547363-17.7331543-24.5319824-11.1098633-15.3693848-36.9243164-.5390625-25.6831055 15.0124512 12.2373047 16.9289551 23.7145996 34.8200684 36.8850098 51.0258789 6.9052734 8.4978027 19.2036133 12.6108398 28.7119141 17.5983887 6.5068359 3.413559 13.0141602 6.8273773 19.5212402 10.2409515-2.5324707 4.4973145-4.901123 9.4626465-7.0263672 15.003418h-57.3850098l42.1135254 110.5700684h198.1279449l-42.1137695-110.5700684h-116.3181305zm29.3303375-120.0431977h16.5844727l-3.2775879-7.7094727h-16.2431641l-1.8881836-4.9575195h16.0236816l-3.3308105-7.8354492h5.3859863l3.3305664 7.8354492h19.9482422l-3.3308105-7.8354492h5.3859863l3.3305664 7.8354492h19.9482422l-3.3310547-7.8354492h5.3859863l3.3308105 7.8354492h19.9455566l-3.3305664-7.8354492h5.3857422l3.3308105 7.8354492h19.947998l-3.3305664-7.8354492h5.385498l3.3310547 7.8354492h19.9477539l-3.3305664-7.8354492h5.3857422l3.3308105 7.8354492h18.8190918l1.8879395 4.9575195h-18.5998535l3.2768555 7.7094727h18.2597656l1.8879395 4.9575195h-18.0400391l3.276123 7.7072754h17.6989746l1.8879395 4.9572754h-17.4794922l3.2773438 7.7094727h17.138916l1.8879395 4.9572754h-16.9196777l3.2773438 7.7097168h16.5786133l1.888916 4.9575195h-16.3603516l3.2775879 7.7094727h16.0187988l1.8881836 4.9572754h-15.7998047l2.3605957 5.5527344h-5.3859863l-2.3605957-5.5527344h-19.9455565l2.3608398 5.5527344h-5.3859863l-2.3608398-5.5527344h-19.947998l2.3608398 5.5527344h-5.3859863l-2.3605957-5.5527344h-19.9482422l2.3608398 5.5527344h-5.3859863l-2.3605957-5.5527344h-19.9458008l2.3608398 5.5527344h-5.3857422l-2.3608398-5.5527344h-19.9482422l2.3608398 5.5527344h-5.3857422l-2.3605957-5.5527344h-19.045166l-1.8881836-4.9572754h18.8254395l-3.2773438-7.7094727h-18.4846191l-1.8884277-4.9575195h18.2658691l-3.2775879-7.7097168h-17.9243164l-1.8881836-4.9572754h17.704834l-3.2773438-7.7094727h-17.3635254l-1.8879395-4.9572754h17.1442871l-3.2768555-7.7072754h-16.8037109zm1.564209 49.8623047 5.9294434 15.5681152c-7.6027832 1.2290039-17.168457 4.0241699-26.8530273 10.0817871 6.4924316-12.8564453 14.8344726-20.9797363 20.9235839-25.6499023zm-45.0735016 56.8664398c2.364502 1.2404785 4.7294922 2.4804688 7.09375 3.7209473 1.2502441.6560059 2.487793 1.1032715 3.7050781 1.402832-.1948242 2.6416016-.3125 5.3674316-.340332 8.1906738h-16.706543c1.9221192-4.8703613 4.0122071-9.3083495 6.2480469-13.3144531zm117.0339508 60.6811524h17.6992188l1.8884277 4.9572754h-17.4804688l3.2775879 7.7094727h17.1386719l1.8881836 4.9575195h-16.9199219l3.2773438 7.7097168h16.5788574l1.8891602 4.9572754h-16.3608398l3.2775879 7.7094727h16.0195313l1.8879395 4.9572754h-15.800293l2.361084 5.5529785h-5.3857422l-2.3613281-5.5529785h-19.9455566l2.3613281 5.5529785h-5.3857422l-2.3613281-5.5529785h-19.9482422l2.3613281 5.5529785h-5.3857422l-2.3613281-5.5529785h-19.947998l2.361084 5.5529785h-5.3857422l-2.3613281-5.5529785h-19.9458008l2.3615723 5.5529785h-5.3859863l-2.361084-5.5529785h-19.9482574l2.3615723 5.5529785h-5.3859863l-2.3613281-5.5529785h-19.045166l-1.8879395-4.9572754h18.8259277l-3.2773438-7.7094727h-18.4848633l-1.8881836-4.9572754h18.2658691l-3.2773438-7.7097168h-17.9245605l-1.8881836-4.9575195h17.7043457l-3.2775879-7.7094727h-17.362793l-1.8881836-4.9572754h17.1437988l-3.276123-7.7072754h-16.8039551l-1.8879395-4.9572754h16.5844727l-3.2770996-7.7097168h-16.2436523l-1.8879395-4.9572754h16.0231934l-3.3308105-7.8354492h5.3857422l3.3305664 7.8354492h19.9482422l-3.3308105-7.8354492h5.3859863l3.3305664 7.8354492h19.9482574l-3.3308105-7.8354492h5.3859863l3.3305664 7.8354492h19.9458008l-3.3308105-7.8354492h5.3857422l3.3308105 7.8354492h19.947998l-3.3305664-7.8354492h5.3857422l3.3308105 7.8354492h19.947998l-3.3308105-7.8354492h5.3857422l3.3310547 7.8354492h18.8188477l1.8879395 4.9572754h-18.5998535l3.2773438 7.7097168h18.2597656l1.8881836 4.9572754h-18.0407715z"/><path d="m291.9006042 357.557373 3.2775879 7.7094727h19.9479981l-3.2773438-7.7094727z"/><path d="m255.7987823 344.8903809h-19.9482421l3.277832 7.7097168h19.9477692z"/><path d="m306.464325 344.8903809h-19.9482422l3.2773437 7.7097168h19.9482422z"/><path d="m241.2353058 357.557373 3.2773437 7.7094727h19.9482575l-3.2775879-7.7094727z"/><path d="m281.1315613 344.8903809h-19.9470215l3.2775879 7.7097168h19.9458008z"/><path d="m266.5693054 357.557373 3.2773438 7.7094727h19.9458008l-3.2763672-7.7094727z"/><path d="m250.4130402 332.2233887h-19.9479981l3.2773438 7.7094726h19.947998z"/><path d="m374.0827332 159.8562164-3.2773438-7.7094726h-19.9465332l3.2770996 7.7094726z"/><path d="m359.5187683 185.1877594-3.2768555-7.7094727h-19.9475097l3.2773437 7.7094727z"/><path d="m334.1864929 172.5210114h19.9475098l-3.2763672-7.7072754h-19.9475098z"/><path d="m348.7504578 159.8562164-3.2773438-7.7094726h-19.9472656l3.2773437 7.7094726z"/><path d="m359.519989 172.5210114h19.9467774l-3.2768555-7.7072754h-19.9462891z"/><path d="m323.41745 159.8562164-3.2775879-7.7094726h-19.9479981l3.2773438 7.7094726z"/><path d="m384.851532 185.1877594-3.277832-7.7094727h-19.9467774l3.2773438 7.7094727z"/><path d="m410.1852722 185.1877594-3.2775879-7.7094727h-19.947998l3.2775879 7.7094727z"/><path d="m399.4167175 159.8562164-3.2773437-7.7094726h-19.9482422l3.2775879 7.7094726z"/><path d="m424.7499695 159.8562164-3.2775879-7.7094726h-19.9475098l3.2778321 7.7094726z"/><path d="m410.1857605 172.5210114h19.9477539l-3.2763672-7.7072754h-19.9475097z"/><path d="m308.8525085 172.5210114h19.9487305l-3.2768555-7.7072754h-19.947998z"/><path d="m415.5712585 185.1877594h19.9467774l-3.2768555-7.7094727h-19.9475097z"/><path d="m384.8520203 172.5210114h19.9484863l-3.2766113-7.7072754h-19.9479981z"/><path d="m420.9565125 197.8547516h19.9460449l-3.2768555-7.7097168h-19.9470215z"/><path d="m397.7297058 202.8122711 3.2770996 7.7094727h19.9482422l-3.2773437-7.7094727z"/><path d="m412.2929382 190.1450348h-19.947998l3.2775879 7.7097168h19.947998z"/><path d="m426.3407898 210.5217438h19.9462891l-3.2768555-7.7094727h-19.9467774z"/><path d="m372.3962097 202.8122711 3.2775879 7.7094727h19.9475098l-3.2775879-7.7094727z"/><path d="m336.2936707 190.1450348h-19.9479981l3.2773438 7.7097168h19.9482421z"/><path d="m386.9589539 190.1450348h-19.9472657l3.2773438 7.7097168h19.9475097z"/><path d="m321.7301941 202.8122711 3.2775879 7.7094727h19.9477539l-3.2770996-7.7094727z"/><path d="m361.6264343 190.1450348h-19.9467773l3.2773437 7.7097168h19.946045z"/><path d="m347.0639343 202.8122711 3.2775879 7.7094727h19.9462891l-3.2768555-7.7094727z"/><path d="m330.9084167 177.4782867h-19.947998l3.2773438 7.7094727h19.9482421z"/><path d="m436.3722839 348.7451172-42.8232422-107.1569672h-33.4018554l44.6533203 111.734848v8.0893555h64.779541l-4.9575195-12.6672363z"/></g></svg>