<?xml version="1.0" encoding="UTF-8"?>
<svg width="200px" height="200px" viewBox="0 0 200 200" version="1.1" xmlns="http://www.w3.org/2000/svg" xmlns:xlink="http://www.w3.org/1999/xlink">
    <title>yes-alt</title>
    <g id="yes-alt" stroke="none" stroke-width="1" fill="none" fill-rule="evenodd">
        <g id="checked" fill="#000000" fill-rule="nonzero">
            <path d="M194.28125,27.3417969 C191.339062,24.3945312 186.565234,24.3894531 183.623047,27.3292969 L93.1960937,117.517578 L60.5703125,82.0828125 C57.7511719,79.0226563 52.9847656,78.8242188 49.9195313,81.6429688 C46.8566406,84.4621094 46.6605469,89.2308594 49.4796875,92.29375 L87.4195312,133.497266 C88.8089844,135.007422 90.7535156,135.884375 92.8039063,135.926953 C92.8589844,135.929297 92.9121094,135.929297 92.9648438,135.929297 C94.9574219,135.929297 96.8742187,135.137891 98.2863281,133.730859 L194.266406,38.0023437 C197.216016,35.0628906 197.221094,30.2890625 194.28125,27.3417969 Z" id="Path"></path>
            <path d="M192.462109,92.4621094 C188.298828,92.4621094 184.924609,95.8363281 184.924609,100 C184.924609,146.829297 146.829297,184.924609 100,184.924609 C53.1734375,184.924609 15.0753906,146.829297 15.0753906,100 C15.0753906,53.1734375 53.1734375,15.0753906 100,15.0753906 C104.163281,15.0753906 107.537891,11.7011719 107.537891,7.53789063 C107.537891,3.37421875 104.163281,0 100,0 C44.859375,0 0,44.859375 0,100 C0,155.138281 44.859375,200 100,200 C155.138281,200 200,155.138281 200,100 C200,95.8367188 196.625781,92.4621094 192.462109,92.4621094 Z" id="Path"></path>
        </g>
    </g>
</svg>