<?xml version="1.0" encoding="UTF-8"?>
<svg xmlns="http://www.w3.org/2000/svg" id="Icons" viewBox="0 0 60 60" width="512" height="512"><path d="M59,58H38V56a2,2,0,0,0-2-2V50H50.206a2,2,0,0,0,1.7-3.052l-16.084-26a1.986,1.986,0,0,0-1.7-.948H19.794a2,2,0,0,0-1.7,3.052L30,42.3V54a2,2,0,0,0-2,2v2H17V56a2,2,0,0,0-2-2V50H25.187a2,2,0,0,0,1.691-3.067l-11.983-19A1.991,1.991,0,0,0,13.2,27H2.813a2,2,0,0,0-1.691,3.067L9,42.558V54a2,2,0,0,0-2,2v2H1a1,1,0,0,0,0,2H59a1,1,0,0,0,0-2ZM35.878,48l-5.567-9H44.642l5.569,9Zm7.527-11H29.073l-4.33-7h14.33ZM34.122,22l3.713,6H23.506l-3.712-6ZM32,45.533l2,3.233V54H32ZM14.8,48l-3.784-6H21.407l3.786,6Zm5.348-8H9.751L6.6,35H16.989ZM13.2,29l2.524,4H5.336L2.813,29ZM11,45.729,13,48.9V54H11ZM9,58V56h6v2Zm21,0V56h6v2Z"/><path d="M54,12a6,6,0,1,0-6,6A6.006,6.006,0,0,0,54,12Zm-6,4a4,4,0,1,1,4-4A4,4,0,0,1,48,16Z"/><path d="M48,4a1,1,0,0,0,1-1V1a1,1,0,0,0-2,0V3A1,1,0,0,0,48,4Z"/><path d="M47,21v2a1,1,0,0,0,2,0V21a1,1,0,0,0-2,0Z"/><path d="M42.634,4.706a1,1,0,0,0,1.732-1l-1-1.732a1,1,0,1,0-1.732,1Z"/><path d="M52.634,22.026a1,1,0,1,0,1.732-1l-1-1.732a1,1,0,1,0-1.732,1Z"/><path d="M37.974,7.366l1.732,1a1,1,0,0,0,1-1.732l-1.732-1a1,1,0,1,0-1,1.732Z"/><path d="M55.294,17.366l1.732,1a1,1,0,1,0,1-1.732l-1.732-1a1,1,0,1,0-1,1.732Z"/><path d="M37,13h2a1,1,0,0,0,0-2H37a1,1,0,0,0,0,2Z"/><path d="M59,11H57a1,1,0,0,0,0,2h2a1,1,0,0,0,0-2Z"/><path d="M39.706,15.634l-1.732,1a1,1,0,1,0,1,1.732l1.732-1a1,1,0,0,0-1-1.732Z"/><path d="M55.8,8.5a.992.992,0,0,0,.5-.134l1.732-1a1,1,0,1,0-1-1.732l-1.732,1A1,1,0,0,0,55.8,8.5Z"/><path d="M42,22.393a1,1,0,0,0,1.366-.367l1-1.732a1,1,0,0,0-1.732-1l-1,1.732A1,1,0,0,0,42,22.393Z"/><path d="M52,5.072a1,1,0,0,0,1.366-.366l1-1.732a1,1,0,1,0-1.732-1l-1,1.732A1,1,0,0,0,52,5.072Z"/></svg>
