<svg id="Layer_1" enable-background="new 0 0 512 512" viewBox="0 0 512 512" xmlns="http://www.w3.org/2000/svg"><path d="m120.33 276.15h-47.78c-3.31 0-6 2.69-6 6v65.28c0 3.31 2.69 6 6 6h47.79c3.31 0 6-2.69 6-6v-65.28c-.01-3.31-2.69-6-6.01-6zm-6 65.28h-35.78v-53.28h35.79v53.28zm7.15-146.06h-50.08c-3.31 0-6 2.69-6 6v50.09c0 3.31 2.69 6 6 6h50.09c3.31 0 6-2.69 6-6v-50.09c-.01-3.31-2.69-6-6.01-6zm-6 50.09h-38.08v-38.09h38.09v38.09zm323.92 29.44h-47.79c-3.31 0-6 2.69-6 6v65.28c0 3.31 2.69 6 6 6h47.79c3.31 0 6-2.69 6-6v-65.28c0-3.31-2.69-6-6-6zm-6 65.28h-35.79v-53.28h35.79zm-42.94-83.97h50.09c3.31 0 6-2.69 6-6v-50.09c0-3.31-2.69-6-6-6h-50.09c-3.31 0-6 2.69-6 6v50.09c0 3.31 2.69 6 6 6zm6-50.09h38.09v38.09h-38.09zm-187.08-57.24h14.52c8.66 0 15.7-7.04 15.7-15.7v-14.52c0-8.66-7.04-15.7-15.7-15.7h-14.52c-8.66 0-15.7 7.04-15.7 15.7v14.52c.01 8.66 7.05 15.7 15.7 15.7zm-3.69-30.21c0-2 1.69-3.7 3.7-3.7h14.52c2 0 3.7 1.69 3.7 3.7v14.52c0 2-1.69 3.7-3.7 3.7h-14.52c-2 0-3.7-1.69-3.7-3.7zm3.69 93.16h14.52c8.66 0 15.7-7.04 15.7-15.7v-14.52c0-8.66-7.04-15.7-15.7-15.7h-14.52c-8.66 0-15.7 7.04-15.7 15.7v14.52c.01 8.66 7.05 15.7 15.7 15.7zm-3.69-30.21c0-2 1.69-3.7 3.7-3.7h14.52c2 0 3.7 1.69 3.7 3.7v14.52c0 2-1.69 3.7-3.7 3.7h-14.52c-2 0-3.7-1.69-3.7-3.7zm3.69 93.16h14.52c8.66 0 15.7-7.04 15.7-15.7v-14.52c0-8.66-7.04-15.7-15.7-15.7h-14.52c-8.66 0-15.7 7.04-15.7 15.7v14.52c.01 8.66 7.05 15.7 15.7 15.7zm-3.69-30.21c0-2 1.69-3.7 3.7-3.7h14.52c2 0 3.7 1.69 3.7 3.7v14.52c0 2-1.69 3.7-3.7 3.7h-14.52c-2 0-3.7-1.69-3.7-3.7zm82.41-95.69h14.52c8.66 0 15.7-7.04 15.7-15.7v-14.52c0-8.66-7.04-15.7-15.7-15.7h-14.52c-8.66 0-15.7 7.04-15.7 15.7v14.52c0 8.66 7.05 15.7 15.7 15.7zm-3.7-30.21c0-2 1.69-3.7 3.7-3.7h14.52c2 0 3.7 1.69 3.7 3.7v14.52c0 2-1.69 3.7-3.7 3.7h-14.52c-2 0-3.7-1.69-3.7-3.7zm3.7 93.16h14.52c8.66 0 15.7-7.04 15.7-15.7v-14.52c0-8.66-7.04-15.7-15.7-15.7h-14.52c-8.66 0-15.7 7.04-15.7 15.7v14.52c0 8.66 7.05 15.7 15.7 15.7zm-3.7-30.21c0-2 1.69-3.7 3.7-3.7h14.52c2 0 3.7 1.69 3.7 3.7v14.52c0 2-1.69 3.7-3.7 3.7h-14.52c-2 0-3.7-1.69-3.7-3.7zm3.7 93.16h14.52c8.66 0 15.7-7.04 15.7-15.7v-14.52c0-8.66-7.04-15.7-15.7-15.7h-14.52c-8.66 0-15.7 7.04-15.7 15.7v14.52c0 8.66 7.05 15.7 15.7 15.7zm-3.7-30.21c0-2 1.69-3.7 3.7-3.7h14.52c2 0 3.7 1.69 3.7 3.7v14.52c0 2-1.69 3.7-3.7 3.7h-14.52c-2 0-3.7-1.69-3.7-3.7zm206.6-81.63h-132.79v-89.43h11.41c3.31 0 6-2.69 6-6s-2.69-6-6-6h-227.25c-3.31 0-6 2.69-6 6s2.69 6 6 6h11.41v89.43h-132.78c-3.31 0-6 2.69-6 6s2.69 6 6 6h6.2v202.43c0 3.31 2.69 6 6 6h149.94c3.06 37.52 34.56 67.12 72.86 67.12s69.79-29.6 72.86-67.12h149.94c3.31 0 6-2.69 6-6v-202.43h6.2c3.31 0 6-2.69 6-6s-2.69-6-6-6zm-144.79-89.43v297.86h-17.36c-3.06-37.52-34.56-67.12-72.86-67.12s-69.79 29.6-72.86 67.12h-17.36v-297.86zm-307.01 101.43h114.58v196.43h-114.58zm216.8 263.55c-33.7 0-61.12-27.42-61.12-61.12s27.42-61.12 61.12-61.12 61.12 27.42 61.12 61.12-27.42 61.12-61.12 61.12zm216.8-67.12h-114.59v-196.43h114.59zm-193.81 21.43c0 9.68-7.2 17.85-16.99 20.39v6.75c0 3.31-2.69 6-6 6s-6-2.69-6-6v-6.53c-7.63-1.69-13.97-6.79-16.6-13.74-1.17-3.1.39-6.56 3.49-7.74 3.1-1.17 6.56.39 7.74 3.49 1.47 3.88 5.97 6.6 10.95 6.6 6.2 0 11.43-4.22 11.43-9.21 0-.77-.11-4.63-2.33-5.52l-10.76-4.29-8.75-3c-7.38-2.53-12.15-9.62-12.15-18.06 0-9.68 7.2-17.85 16.99-20.39v-6.75c0-3.31 2.69-6 6-6s6 2.69 6 6v6.53c7.63 1.69 13.97 6.79 16.6 13.74 1.17 3.1-.39 6.56-3.49 7.74-3.1 1.17-6.56-.39-7.74-3.49-1.47-3.88-5.97-6.6-10.95-6.6-6.2 0-11.43 4.22-11.43 9.21 0 2.57 1.06 5.68 4.05 6.71l8.89 3.05c.09.03.18.07.27.1l10.89 4.34c6.2 2.47 9.89 8.7 9.89 16.67z"/></svg>