<svg id="Outline" viewBox="0 0 512 512" xmlns="http://www.w3.org/2000/svg"><g id="_05-Solar-panel-roof" data-name="05-Solar-panel-roof"><path d="m112 176a64 64 0 1 1 64-64 64.072 64.072 0 0 1 -64 64zm0-112a48 48 0 1 0 48 48 48.054 48.054 0 0 0 -48-48z"/><path d="m104 16h16v16h-16z"/><path d="m41.775 41.775h16v16h-16z" transform="matrix(.707 -.707 .707 .707 -20.617 49.773)"/><path d="m16 104h16v16h-16z"/><path d="m41.775 166.225h16v16h-16z" transform="matrix(.707 -.707 .707 .707 -108.621 86.232)"/><path d="m104 192h16v16h-16z"/><path d="m166.225 166.225h16v16h-16z" transform="matrix(.707 -.707 .707 .707 -72.167 174.22)"/><path d="m192 104h16v16h-16z"/><path d="m166.225 41.774h16v16h-16z" transform="matrix(.707 -.707 .707 .707 15.837 137.781)"/><path d="m493.657 330.343-128-128c-.064-.064-.135-.12-.2-.182s-.134-.122-.2-.182a7.889 7.889 0 0 0 -.789-.614l-.026-.02a7.977 7.977 0 0 0 -.928-.527c-.061-.03-.123-.057-.184-.085a7.966 7.966 0 0 0 -.925-.36l-.074-.026a7.837 7.837 0 0 0 -1.023-.232c-.08-.014-.16-.024-.241-.035a7.931 7.931 0 0 0 -1.055-.079h-184.012a8 8 0 0 0 -5.657 2.343l-128 128-.006.007a7.922 7.922 0 0 0 -.692.8c-.048.064-.1.126-.143.191a8.2 8.2 0 0 0 -.561.892c-.01.02-.019.041-.029.061a7.98 7.98 0 0 0 -.405.921c-.023.061-.046.121-.067.182a8.087 8.087 0 0 0 -.285 1.034v.025a8.2 8.2 0 0 0 -.124 1c-.006.091-.01.181-.013.272s-.018.18-.018.271v152a8 8 0 0 0 8 8h440a8 8 0 0 0 8-8v-152a8 8 0 0 0 -2.343-5.657zm-294.343-74.343h37.372l-24 24h-37.372zm-46.628 24h-37.373l24-24h37.373zm124 0h-41.372l24-24h41.372zm40-40h-41.372l24-24h41.372zm-64 0h-37.372l24-24h37.372zm-56 56-32 32h-37.372l32-32zm22.628 0h41.372l-32 32h-41.372zm-40-80h37.373l-24 24h-37.374zm-80 80h37.373l-32 32h-37.374zm-43.314 48h168v136h-168zm256 136v-40h96v40zm104-72v16h-112v-16zm-56-48a40 40 0 1 1 40-40 40.045 40.045 0 0 1 -40 40zm120 120h-56v-40a8 8 0 0 0 8-8v-32a8 8 0 0 0 -8-8h-16v-16h-16v16h-24v-16.581a56 56 0 1 0 -16 0v16.581h-24v-16h-16v16h-16a8 8 0 0 0 -8 8v32a8 8 0 0 0 8 8v40h-56v-140.686l83.314-83.314h28.686v8h16v-16a8 8 0 0 0 -8-8h-20.686l20.686-20.686 120 120z"/><path d="m376 312h-12.687l14.344-14.343-11.314-11.314-28 28a8 8 0 0 0 5.657 13.657h12.687l-14.344 14.343 11.314 11.314 28-28a8 8 0 0 0 -5.657-13.657z"/><path d="m184 376h-96a8 8 0 0 0 -8 8v40a8 8 0 0 0 8 8h96a8 8 0 0 0 8-8v-40a8 8 0 0 0 -8-8zm-8 40h-80v-24h80z"/></g></svg>