<svg id="Layer_1" enable-background="new 0 0 512 512" viewBox="0 0 512 512" xmlns="http://www.w3.org/2000/svg"><path d="m390.752 327.928v-10.271c0-3.729-1.171-6.747-3.688-9.5l-52.075-56.957c-2.816-3.081-6.215-4.579-10.391-4.579h-27.856c-4.418 0-8 3.582-8 8v73.307c0 2.122.843 4.156 2.343 5.657 1.5 1.5 3.535 2.343 5.657 2.343l86.009-.001c4.42.001 8.001-3.581 8.001-7.999zm-16-8-70.009.001v-57.307l19.011.001 50.998 55.782zm-58.842 33.136c0 4.418-3.582 8-8 8h-10.344c-4.418 0-8-3.582-8-8s3.582-8 8-8h10.344c4.418 0 8 3.582 8 8zm-114.854-80.449c3.124 3.124 3.124 8.189 0 11.314l-57.309 57.309c-1.562 1.562-3.609 2.343-5.657 2.343s-4.095-.781-5.657-2.343c-3.125-3.125-3.125-8.189 0-11.314l57.309-57.308c3.125-3.126 8.19-3.126 11.314-.001zm-119.918 17.325c-3.124-3.125-3.124-8.19 0-11.314l57.308-57.309c3.124-3.124 8.189-3.124 11.313 0s3.124 8.189 0 11.313l-57.308 57.31c-1.562 1.562-3.609 2.343-5.657 2.343s-4.094-.781-5.656-2.343zm-.773 52.07c-3.124-3.125-3.125-8.189 0-11.314l110.154-110.154c3.124-3.124 8.189-3.124 11.313 0s3.124 8.189 0 11.313l-110.154 110.155c-1.562 1.562-3.609 2.343-5.657 2.343s-4.094-.782-5.656-2.343zm422.138-191.499-57.314-62.689c-6.309-6.901-14.587-10.548-23.938-10.548h-45.153v-15.48c0-13.213-10.75-23.963-23.963-23.963h-232.273c-13.213 0-23.962 10.75-23.962 23.963v48.667h-23.488c-13.213 0-23.962 10.75-23.962 23.963v48.667h-23.487c-13.214.001-23.963 10.751-23.963 23.963v210.572c0 13.213 10.75 23.963 23.963 23.963h8.604c3.726 18.557 20.147 32.579 39.784 32.579s36.057-14.022 39.784-32.579h4.24c3.726 18.557 20.147 32.579 39.784 32.579 19.638 0 36.059-14.023 39.784-32.58h97.924c3.726 18.557 20.146 32.58 39.784 32.58s36.059-14.023 39.784-32.58h17.702c13.213 0 23.963-10.75 23.963-23.964v-48.666h23.486c13.213 0 23.963-10.75 23.963-23.964v-48.666h23.486c13.214 0 23.964-10.75 23.964-23.964v-99.967c.001-8.356-2.858-15.72-8.496-21.886zm-390.603-88.717c0-4.391 3.572-7.963 7.962-7.963h232.272c4.391 0 7.963 3.572 7.963 7.963v88.11h-31.45v-15.479c0-13.213-10.75-23.963-23.962-23.963h-192.785zm-47.45 72.631c0-4.391 3.572-7.963 7.962-7.963h232.272c4.391 0 7.962 3.572 7.962 7.963v88.109h-31.45v-15.479c0-13.213-10.75-23.962-23.963-23.962h-192.783zm-39.487 64.667h232.272c4.391 0 7.963 3.572 7.963 7.962l.001 156.403h-248.199v-156.403c0-4.39 3.572-7.962 7.963-7.962zm48.388 259.077c-13.554 0-24.58-11.026-24.58-24.58s11.026-24.58 24.58-24.58c13.553 0 24.58 11.026 24.58 24.58s-11.027 24.58-24.58 24.58zm83.808 0c-13.554 0-24.58-11.026-24.58-24.58s11.026-24.58 24.58-24.58 24.58 11.026 24.58 24.58-11.026 24.58-24.58 24.58zm0-65.16c-19.638 0-36.059 14.023-39.784 32.581h-4.24c-3.725-18.558-20.146-32.581-39.784-32.581s-36.059 14.023-39.784 32.581h-8.604c-4.391 0-7.963-3.572-7.963-7.963v-38.169h248.198v46.131h-68.255c-3.726-18.558-20.146-32.58-39.784-32.58zm177.492 65.16c-13.554 0-24.58-11.026-24.58-24.58s11.026-24.58 24.58-24.58 24.58 11.026 24.58 24.58-11.026 24.58-24.58 24.58zm57.486-32.58h-17.702c-3.726-18.557-20.146-32.58-39.784-32.58s-36.059 14.023-39.784 32.58h-13.668l-.001-187.055h45.152c4.875 0 8.842 1.748 12.13 5.344l57.315 62.69c2.937 3.212 4.305 6.736 4.305 11.09v46.651h-11.459c-8.396 0-15.228 6.831-15.228 15.228v17.224c0 8.396 6.831 15.228 15.228 15.228h11.459v5.637c0 4.39-3.572 7.963-7.963 7.963zm-39.943-190.423v-45.174l19.011.001 50.998 55.782v1.522l-58.916.001zm47.906 145.143v15.679h-10.687v-15.679zm39.487-27.35h-23.487v-35.301c0-8.356-2.859-15.721-8.497-21.887l-29.689-32.472 52.287-.001c4.418 0 8-3.582 8-8v-10.271c0-3.729-1.171-6.747-3.688-9.499l-52.075-56.958c-2.816-3.081-6.215-4.578-10.39-4.578h-27.855c-4.418 0-8 3.582-8 8v42.009c-2.408-.751-4.931-1.211-7.546-1.383v-56.714h45.153c4.875 0 8.843 1.748 12.13 5.344l57.316 62.69c2.937 3.211 4.305 6.735 4.305 11.089v46.652h-11.459c-8.396 0-15.228 6.831-15.228 15.228v17.224c0 8.396 6.831 15.228 15.228 15.228h11.459v5.637c-.001 4.39-3.573 7.963-7.964 7.963zm-39.944-190.423v-45.174l19.011.001 50.998 55.783v1.522h-58.917zm47.907 145.143v15.679h-10.687v-15.679zm39.486-27.35h-23.486v-35.301c0-8.357-2.859-15.721-8.497-21.886l-29.689-32.473h52.288c4.418 0 8-3.582 8-8v-10.271c0-3.73-1.172-6.749-3.688-9.499l-52.074-56.958c-2.816-3.081-6.215-4.579-10.391-4.579h-27.856c-4.418 0-8 3.582-8 8v42.009c-2.408-.751-4.931-1.211-7.546-1.383v-56.714h45.153c4.875 0 8.842 1.748 12.13 5.344l57.315 62.69c2.938 3.213 4.306 6.736 4.306 11.09v46.652h-11.46c-8.396 0-15.228 6.831-15.228 15.227v17.223c0 8.396 6.831 15.228 15.228 15.228h11.459v5.637c0 4.391-3.573 7.964-7.964 7.964zm7.964-45.279v15.678h-10.688v-15.678z"/></svg>