<svg id="Layer_1" height="512" viewBox="0 0 512 512" width="512" xmlns="http://www.w3.org/2000/svg" data-name="Layer 1"><path d="m134.058 70.623v79.72h79.72v-79.72zm137.734 381.6h-56.523v45.214zm51.885-365.5h137.223v425.277h-220.692l78.133-62.518a13.525 13.525 0 0 0 5.336-10.735v-352.022zm-96.429 90.567h-106.666a13.471 13.471 0 0 1 -13.475-13.473v-106.666a13.471 13.471 0 0 1 13.475-13.475h106.666a13.468 13.468 0 0 1 13.475 13.475v106.666a13.468 13.468 0 0 1 -13.475 13.473zm69.483-177.29v425.274h-245.631v-425.274zm-69.6 350.989h-106.431a13.473 13.473 0 0 0 0 26.946h106.44a13.473 13.473 0 1 0 0-26.946zm0-67.37h-106.431a13.474 13.474 0 0 0 0 26.948h106.44a13.474 13.474 0 1 0 0-26.948zm0-67.367h-106.431a13.474 13.474 0 0 0 0 26.947h106.44a13.474 13.474 0 1 0 0-26.947z" fill-rule="evenodd"/></svg>