<?xml version="1.0" encoding="iso-8859-1"?>
<!-- Generator: Adobe Illustrator 19.0.0, SVG Export Plug-In . SVG Version: 6.00 Build 0)  -->
<svg version="1.1" id="Capa_1" xmlns="http://www.w3.org/2000/svg" xmlns:xlink="http://www.w3.org/1999/xlink" x="0px" y="0px"
	 viewBox="0 0 409.6 409.6" style="enable-background:new 0 0 409.6 409.6;" xml:space="preserve">
<g>
	<g>
		<path d="M204.8,0C91.684,0,0,91.699,0,204.8s91.684,204.8,204.8,204.8c113.101,0,204.8-91.699,204.8-204.8S317.901,0,204.8,0z
			 M102.4,238.935c-18.867,0-34.135-15.283-34.135-34.135c0-18.836,15.268-34.135,34.135-34.135
			c18.852,0,34.135,15.299,34.135,34.135C136.535,223.652,121.252,238.935,102.4,238.935z M204.8,238.935
			c-18.867,0-34.135-15.283-34.135-34.135c0-18.836,15.268-34.135,34.135-34.135c18.852,0,34.135,15.299,34.135,34.135
			C238.935,223.652,223.652,238.935,204.8,238.935z M307.2,238.935c-18.867,0-34.135-15.283-34.135-34.135
			c0-18.836,15.268-34.135,34.135-34.135c18.852,0,34.135,15.299,34.135,34.135C341.335,223.652,326.052,238.935,307.2,238.935z"/>
	</g>
</g>
<g>
</g>
<g>
</g>
<g>
</g>
<g>
</g>
<g>
</g>
<g>
</g>
<g>
</g>
<g>
</g>
<g>
</g>
<g>
</g>
<g>
</g>
<g>
</g>
<g>
</g>
<g>
</g>
<g>
</g>
</svg>
