<svg id="Capa_1" enable-background="new 0 0 512 512" height="512" viewBox="0 0 512 512" width="512" xmlns="http://www.w3.org/2000/svg"><g><g clip-rule="evenodd" fill-rule="evenodd" transform="matrix(-1 0 0 1 68 0)"><path d="m22.824 353.882c0-29.109-23.597-52.706-52.706-52.706s-52.706 23.597-52.706 52.706 23.597 52.706 52.706 52.706 52.706-23.597 52.706-52.706zm-75.295 0c0-12.475 10.113-22.588 22.588-22.588s22.588 10.113 22.588 22.588-10.113 22.588-22.588 22.588-22.588-10.113-22.588-22.588zm-240.941 0c0-29.109-23.597-52.706-52.706-52.706s-52.706 23.597-52.706 52.706 23.597 52.706 52.706 52.706 52.706-23.597 52.706-52.706zm-75.294 0c0-12.475 10.113-22.588 22.588-22.588s22.588 10.113 22.588 22.588-10.113 22.588-22.588 22.588c-12.475.001-22.588-10.113-22.588-22.588z"/><path d="m-406.353 105.412h233.412c7.494 0 13.848 5.51 14.907 12.929l10.804 75.628c1.288 9.019 10.327 16.855 19.46 16.855h128.005c3.09 0 6.105.95 8.636 2.722 2.947 2.063 6.888 4.892 12.054 8.646 3.605 2.622 7.435 5.427 11.247 8.232 2.286 1.683 4.06 2.993 4.751 3.511 17.643 12.35 31.077 38.174 31.077 59.73v45.159c0 8.317-6.742 15.059-15.059 15.059h-15.059c0-37.425-30.339-67.765-67.765-67.765s-67.765 30.339-67.765 67.765h-180.706c0-37.425-30.339-67.765-67.765-67.765s-67.765 30.339-67.765 67.765h-15.059c-8.317 0-15.059-6.742-15.059-15.059v-75.294c0-.786.062-1.572.184-2.349l19.873-125.863c-7.112-1.204-12.528-7.393-12.528-14.847 0-8.317 6.742-15.059 15.059-15.059z"/><path d="m-60 135.53c-12.813-17.084-38.871-30.118-60.236-30.118h-52.706c-8.317 0-15.059 6.742-15.059 15.059s6.742 15.059 15.059 15.059h52.706c11.884 0 29.015 8.569 36.141 18.071l49.694 66.259c1.024 1.366 2.273 2.547 3.694 3.494l22.588 15.059c6.92 4.613 16.27 2.743 20.883-4.177s2.743-16.27-4.177-20.883l-20.403-13.602z"/></g></g></svg>