<?xml version="1.0" encoding="UTF-8"?>
<svg width="450px" height="120px" viewBox="0 0 450 120" version="1.1" xmlns="http://www.w3.org/2000/svg" xmlns:xlink="http://www.w3.org/1999/xlink">
    <title>logo</title>
    <g id="Logos" stroke="none" stroke-width="1" fill="none" fill-rule="evenodd">
        <path d="M423.926361,38.8235294 L450,38.8235294 L450,14.6348204 L426.533725,0 L385.010941,0 L385.010941,23.9715752 L423.926361,23.9715752 L423.926361,38.8235294 Z M450,81.1764706 L423.601118,81.1764706 L423.601118,95.5810735 L385.010941,95.5810735 L385.010941,120 L426.241006,120 L450,105.809036 L450,81.1764706 Z M312.14442,105.811677 L312.14442,14.3965824 L335.613975,0 L377.133479,0 L377.133479,23.5813457 L338.221133,23.5813457 L338.221133,95.5856177 L377.133479,95.5856177 L377.133479,120 L335.613975,120 L312.14442,105.811677 Z M215.645514,98.560674 L215.645514,120 L180.118795,120 L157.549234,107.809643 L157.549234,74.1853379 L187.968422,61.3658362 L175.608901,52.7513891 L175.608901,11.3514967 L204.265313,0 L215.645514,0 L215.645514,27.9512457 L198.374326,27.9512457 L198.374326,38.0390751 L215.645514,52.7513891 L215.645514,81.1220649 L209.563685,76.7072952 L181.886594,88.6879369 L181.886594,98.560674 L215.645514,98.560674 Z M292.450766,74.1853379 L276.219797,95.8343789 L292.450766,108.019358 L269.406481,120 L262.398352,115.1658 L257.984308,120 L223.522976,120 L223.522976,98.560674 L238.749122,98.560674 L223.522976,87.8436996 L223.522976,45.6049471 L241.953278,38.0390751 L241.953278,27.9512457 L223.522976,27.9512457 L223.522976,0 L234.945149,0 L265.002689,11.3514967 L265.002689,52.7513891 L234.140265,65.5708908 L257.984308,83.8537372 L269.406481,67.0388959 L292.450766,74.1853379 Z M137.85558,58.6908304 L137.85558,14.4595156 L114.386025,0 L72.8665208,0 L72.8665208,23.6844291 L111.778867,23.6844291 L111.778867,48.4200692 L72.8665208,48.4200692 L72.8665208,72.9411765 L114.386025,72.9411765 L137.85558,58.6908304 Z M0,0 L0,0 L64.9890591,0 L64.9890591,23.5813457 L26.0767124,23.5813457 L26.0767124,48.2093272 L64.9890591,48.2093272 L64.9890591,72.6237095 L26.0767124,72.6237095 L26.0767124,120 L0,120 L0,0 Z" id="logo" fill="#FFFFFF"></path>
    </g>
</svg>