<?xml version="1.0" encoding="UTF-8"?>
<svg width="3025px" height="1591px" viewBox="0 0 3025 1591" version="1.1" xmlns="http://www.w3.org/2000/svg" xmlns:xlink="http://www.w3.org/1999/xlink">
    <title>Group Copy 2</title>
    <g id="2026-Logo" stroke="none" stroke-width="1" fill="none" fill-rule="evenodd">
        <g id="Group-Copy-2" transform="translate(-242, -127)">
            <g id="Group-6-Copy" transform="translate(242.6418, 127.3802)">
                <path d="M241.549774,1590 L241.549774,1542.76972 L46.8234946,1542.76972 L46.8234946,1366.86484 L241.178159,1366.86484 L241.178159,1319.63456 L0,1319.63456 L0,1590 L241.549774,1590 Z M231.144553,1472.48215 L231.144553,1432.68971 L81.3836931,1432.68971 L81.3836931,1472.48215 L231.144553,1472.48215 Z M541.558549,1590 L541.558549,1542.76972 L359.838796,1542.76972 L359.838796,1319.63456 L312.643687,1319.63456 L312.643687,1590 L541.558549,1590 Z M847.513165,1590 L847.513165,1542.76972 L652.786886,1542.76972 L652.786886,1366.86484 L847.14155,1366.86484 L847.14155,1319.63456 L605.963391,1319.63456 L605.963391,1590 L847.513165,1590 Z M837.107944,1472.48215 L837.107944,1432.68971 L687.347084,1432.68971 L687.347084,1472.48215 L837.107944,1472.48215 Z M1188.39959,1590 L1188.39959,1542.76972 L1041.98327,1542.76972 C993.3017,1542.76972 957.998271,1505.20864 957.998271,1454.25944 C957.998271,1402.93835 993.673315,1366.86484 1041.98327,1366.86484 L1188.39959,1366.86484 L1188.39959,1319.63456 L1041.98327,1319.63456 C966.545417,1319.63456 910.803162,1372.44322 910.803162,1452.02809 C910.803162,1530.49729 966.545417,1590 1041.98327,1590 L1188.39959,1590 Z M1391.04523,1590 L1391.04523,1366.86484 L1493.61098,1366.86484 L1493.61098,1319.63456 L1241.28437,1319.63456 L1241.28437,1366.86484 L1343.85012,1366.86484 L1343.85012,1590 L1391.04523,1590 Z M1873.14537,1590 L1791.76168,1507.81188 C1826.69349,1494.42377 1847.50394,1462.81296 1847.50394,1418.18592 C1847.50394,1357.93943 1811.08566,1319.63456 1749.39757,1319.63456 L1555.41452,1319.63456 L1555.41452,1590 L1602.23801,1590 L1602.23801,1366.86484 L1749.39757,1366.86484 C1781.72807,1366.86484 1801.05206,1383.97187 1801.05206,1418.92971 C1801.05206,1453.88755 1783.21453,1473.22593 1749.39757,1473.22593 L1636.79821,1473.22593 L1636.79821,1514.87783 L1737.8775,1514.87783 L1806.25467,1590 L1873.14537,1590 Z M1978.05625,1590 L1978.05625,1319.63456 L1930.86114,1319.63456 L1930.86114,1590 L1978.05625,1590 Z M2327.86144,1590 L2327.86144,1542.76972 L2181.44512,1542.76972 C2132.76355,1542.76972 2097.46012,1505.20864 2097.46012,1454.25944 C2097.46012,1402.93835 2133.13517,1366.86484 2181.44512,1366.86484 L2327.86144,1366.86484 L2327.86144,1319.63456 L2181.44512,1319.63456 C2106.00727,1319.63456 2050.26501,1372.44322 2050.26501,1452.02809 C2050.26501,1530.49729 2106.00727,1590 2181.44512,1590 L2327.86144,1590 Z M2735.26697,1590 L2579.56026,1331.16321 C2573.98604,1321.86591 2567.29697,1315.91564 2556.89175,1315.91564 C2546.48653,1315.91564 2539.42584,1321.86591 2533.85162,1331.16321 L2378.51653,1590 L2432.40071,1590 L2555.03367,1382.4843 L2615.23531,1483.63891 L2532.36516,1483.63891 L2510.06825,1521.94378 L2637.90383,1521.94378 L2678.40986,1590 L2735.26697,1590 Z M3023.75567,1590 L3023.75567,1542.76972 L2842.03592,1542.76972 L2842.03592,1319.63456 L2794.84081,1319.63456 L2794.84081,1590 L3023.75567,1590 Z" id="Combined-Shape" fill="#000000" fill-rule="nonzero"></path>
                <path d="M3024,545.735118 L3024,711.335517 L2864.35246,806.738869 L2587.30881,806.738869 L2587.30881,642.574727 L2846.61385,642.574727 L2846.61385,545.735118 L3024,545.735118 Z M2534.37654,0 L2534.37654,158.533235 L2272.9067,158.533235 L2272.9067,642.605276 L2534.37654,642.605276 L2534.37654,806.738869 L2255.38801,806.738869 L2097.68535,711.353271 L2097.68535,96.7856885 L2255.38801,0 L2534.37654,0 Z M2866.31937,0 L3024,98.3873203 L3024,261.003752 L2848.7993,261.003752 L2848.7993,161.156679 L2587.30881,161.156679 L2587.30881,0 L2866.31937,0 Z M1449.2651,662.606056 L1449.2651,806.738869 L1210.54483,806.738869 L1058.88964,724.785248 L1058.88964,498.734963 L1263.29007,412.551711 L1180.24079,354.6383 L1180.24079,76.3141133 L1372.79632,0 L1449.2651,0 L1449.2651,187.911303 L1333.21209,187.911303 L1333.21209,255.730004 L1449.2651,354.6383 L1449.2651,545.369358 L1408.39851,515.689638 L1222.42348,596.233383 L1222.42348,662.606056 L1449.2651,662.606056 Z M1965.35469,498.734963 L1856.29139,644.277654 L1965.35469,726.195125 L1810.5096,806.738869 L1763.41878,774.239396 L1733.7588,806.738869 L1502.19736,806.738869 L1502.19736,662.606056 L1604.5088,662.606056 L1502.19736,590.557724 L1502.19736,306.594029 L1626.03898,255.730004 L1626.03898,187.911303 L1502.19736,187.911303 L1502.19736,0 L1578.94816,0 L1780.91852,76.3141133 L1780.91852,354.6383 L1573.53978,440.821553 L1733.7588,563.73391 L1810.5096,450.690692 L1965.35469,498.734963 Z M926.558974,394.568118 L926.558974,97.208777 L768.856311,0 L489.867783,0 L489.867783,159.226246 L751.337625,159.226246 L751.337625,325.519599 L489.867783,325.519599 L489.867783,490.370685 L768.856311,490.370685 L926.558974,394.568118 Z M0.244325678,0 L0.244325678,0 L436.935517,0 L436.935517,158.533235 L175.465675,158.533235 L175.465675,324.102817 L436.935517,324.102817 L436.935517,488.236411 L175.465675,488.236411 L175.465675,806.738869 L0.244325678,806.738869 L0.244325678,0 Z" id="P&amp;C-Copy-3" fill="#1B1819"></path>
                <g id="Group-5" transform="translate(0.2443, 1017.9045)">
                    <rect id="Rectangle-Copy" fill="#25466E" x="0" y="0" width="1007.91856" height="112.908966"></rect>
                    <rect id="Rectangle-Copy-2" fill="#54AF61" x="1007.91856" y="0" width="1007.91856" height="112.908966"></rect>
                    <rect id="Rectangle-Copy-3" fill="#04D2DF" x="2015.83712" y="0" width="1007.91856" height="112.908966"></rect>
                </g>
            </g>
        </g>
    </g>
</svg>