<?xml version="1.0" encoding="UTF-8"?>
<svg width="199px" height="68px" viewBox="0 0 199 68" version="1.1" xmlns="http://www.w3.org/2000/svg" xmlns:xlink="http://www.w3.org/1999/xlink">
    <title>Group 6 Copy 7</title>
    <g id="2025-Branding" stroke="none" stroke-width="1" fill="none" fill-rule="evenodd">
        <g id="Group-6-Copy-7">
            <path d="M187.469657,17.1385768 L199,17.1385768 L199,6.46051496 L188.622692,0 L170.260394,0 L170.260394,10.5822085 L187.469657,10.5822085 L187.469657,17.1385768 Z M199,35.835206 L187.325828,35.835206 L187.325828,42.1940919 L170.260394,42.1940919 L170.260394,52.9737828 L188.493245,52.9737828 L199,46.7092074 L199,35.835206 Z M138.037199,46.7103732 L138.037199,6.35534525 L148.415958,0 L166.776805,0 L166.776805,10.4099424 L149.568901,10.4099424 L149.568901,42.1960979 L166.776805,42.1960979 L166.776805,52.9737828 L148.415958,52.9737828 L138.037199,46.7103732 Z M95.3632385,43.5094311 L95.3632385,52.9737828 L79.6525339,52.9737828 L69.6717724,47.5923719 L69.6717724,32.7489831 L83.1238134,27.0898373 L77.6581583,23.2870052 L77.6581583,5.01109766 L90.3306605,0 L95.3632385,0 L95.3632385,12.3390268 L87.7255352,12.3390268 L87.7255352,16.7922808 L95.3632385,23.2870052 L95.3632385,35.8111887 L92.6737187,33.8622966 L80.4342936,39.1511292 L80.4342936,43.5094311 L95.3632385,43.5094311 Z M129.328228,32.7489831 L122.150532,42.3059131 L129.328228,47.6849502 L119.137533,52.9737828 L116.038382,50.8397341 L114.086394,52.9737828 L98.8468271,52.9737828 L98.8468271,43.5094311 L105.580167,43.5094311 L98.8468271,38.7784422 L98.8468271,20.1322214 L106.997116,16.7922808 L106.997116,12.3390268 L98.8468271,12.3390268 L98.8468271,0 L103.897966,0 L117.190078,5.01109766 L117.190078,23.2870052 L103.542028,28.9461511 L114.086394,37.0170805 L119.137533,29.5941992 L129.328228,32.7489831 Z M60.9628009,25.9089609 L60.9628009,6.38312697 L50.5840424,0 L32.2231947,0 L32.2231947,10.4554483 L49.4310992,10.4554483 L49.4310992,21.3749519 L32.2231947,21.3749519 L32.2231947,32.1997503 L50.5840424,32.1997503 L60.9628009,25.9089609 Z M0,0 L0,0 L28.7396061,0 L28.7396061,10.4099424 L11.5317017,10.4099424 L11.5317017,21.2819202 L28.7396061,21.2819202 L28.7396061,32.0596051 L11.5317017,32.0596051 L11.5317017,52.9737828 L0,52.9737828 L0,0 Z" id="P&amp;C-Copy-3" fill="#FFFFFF"></path>
            <g id="Group-5" transform="translate(0, 61.633)">
                <rect id="Rectangle-Copy" fill="#25466E" x="0" y="0" width="66.3333333" height="6.3670412"></rect>
                <rect id="Rectangle-Copy-2" fill="#54AF61" x="66.3333333" y="0" width="66.3333333" height="6.3670412"></rect>
                <rect id="Rectangle-Copy-3" fill="#04D2DF" x="132.666667" y="0" width="66.3333333" height="6.3670412"></rect>
            </g>
        </g>
    </g>
</svg>