<?xml version="1.0" encoding="UTF-8"?>
<svg width="232px" height="70px" viewBox="0 0 232 70" version="1.1" xmlns="http://www.w3.org/2000/svg" xmlns:xlink="http://www.w3.org/1999/xlink">
    <title>Combined Shape</title>
    <g id="2025-Web-update" stroke="none" stroke-width="1" fill="none" fill-rule="evenodd">
        <g id="1" transform="translate(-844, -25)" fill="#FFFFFF">
            <path d="M1067.09558,52.5821596 L1076,52.5821596 L1076,44.7429394 L1067.98602,40 L1053.80556,40 L1053.80556,47.7688502 L1067.09558,47.7688502 L1067.09558,52.5821596 Z M1076,67.0422535 L1066.98451,67.0422535 L1066.98451,71.8499358 L1053.80556,71.8499358 L1053.80556,80 L1067.88605,80 L1076,75.2636219 L1076,67.0422535 Z M1029,75.2705589 L1029,44.7988608 L1037.0151,40 L1051.19444,40 L1051.19444,47.8604486 L1037.90547,47.8604486 L1037.90547,71.8618726 L1051.19444,71.8618726 L1051.19444,80 L1037.0151,80 L1029,75.2705589 Z M954,82.4937265 L954,95 L932.596992,95 L919,87.8889586 L919,68.2747804 L937.325985,60.7967378 L929.880014,55.7716437 L929.880014,31.6217064 L947.144018,25 L954,25 L954,41.3048934 L943.595003,41.3048934 L943.595003,47.1894605 L954,55.7716437 L954,72.3212045 L950.336013,69.7459222 L933.661999,76.7346299 L933.661999,82.4937265 L954,82.4937265 Z M1001,68.2747804 L991.345407,80.9033877 L1001,88.0112923 L987.292674,95 L983.124061,92.1800502 L980.498475,95 L960,95 L960,82.4937265 L969.056898,82.4937265 L960,76.2421581 L960,51.6028858 L970.962811,47.1894605 L970.962811,41.3048934 L960,41.3048934 L960,25 L966.794199,25 L984.673187,31.6217064 L984.673187,55.7716437 L966.315433,63.2496863 L980.498475,73.9146801 L987.292674,64.1060226 L1001,68.2747804 Z M891,59.4925021 L891,59.4925021 L891,44.8023198 L882.984901,40 L868.805556,40 L868.805556,47.8661143 L882.09453,47.8661143 L882.09453,56.0813587 L868.805556,56.0813587 L868.805556,64.2253521 L882.984901,64.2253521 L891,59.4925021 Z M844,40 L844,40 L866.194444,40 L866.194444,47.8604486 L852.90547,47.8604486 L852.90547,56.0697757 L866.194444,56.0697757 L866.194444,64.2079032 L852.90547,64.2079032 L852.90547,80 L844,80 L844,40 Z" id="Combined-Shape"></path>
        </g>
    </g>
</svg>