<?xml version="1.0" encoding="UTF-8"?>
<svg width="400px" height="138px" viewBox="0 0 400 138" version="1.1" xmlns="http://www.w3.org/2000/svg" xmlns:xlink="http://www.w3.org/1999/xlink">
    <title>Group 6 Copy 8</title>
    <g id="2025-Branding" stroke="none" stroke-width="1" fill="none" fill-rule="evenodd">
        <g id="Group-6-Copy-8">
            <path d="M376.823432,34.4215436 L400,34.4215436 L400,12.9754588 L379.141089,0 L342.231947,0 L342.231947,21.2535705 L376.823432,21.2535705 L376.823432,34.4215436 Z M400,71.9723183 L376.534327,71.9723183 L376.534327,84.7436628 L342.231947,84.7436628 L342.231947,106.393862 L378.880894,106.393862 L400,93.811933 L400,71.9723183 Z M277.461707,93.8142744 L277.461707,12.7642333 L298.323533,0 L335.229759,0 L335.229759,20.907587 L300.641007,20.907587 L300.641007,84.7476917 L335.229759,84.7476917 L335.229759,106.393862 L298.323533,106.393862 L277.461707,93.8142744 Z M191.684902,87.3854228 L191.684902,106.393862 L160.105596,106.393862 L140.043764,95.5857025 L140.043764,65.7738716 L167.083042,54.4079025 L156.096801,46.7702001 L156.096801,10.0644131 L181.569167,0 L191.684902,0 L191.684902,24.7820082 L176.332734,24.7820082 L176.332734,33.7260342 L191.684902,46.7702001 L191.684902,71.9240814 L186.278832,68.0098781 L161.676972,78.6321009 L161.676972,87.3854228 L191.684902,87.3854228 Z M259.956236,65.7738716 L245.528708,84.9682473 L259.956236,95.7716391 L239.472427,106.393862 L233.24298,102.107785 L229.319385,106.393862 L198.68709,106.393862 L198.68709,87.3854228 L212.221442,87.3854228 L198.68709,77.883587 L198.68709,40.4340537 L215.06958,33.7260342 L215.06958,24.7820082 L198.68709,24.7820082 L198.68709,0 L208.840132,0 L235.557946,10.0644131 L235.557946,46.7702001 L208.12468,58.1361692 L229.319385,74.3460245 L239.472427,59.4377252 L259.956236,65.7738716 Z M122.538293,52.0362009 L122.538293,12.8200309 L101.676467,0 L64.7702407,0 L64.7702407,20.9989823 L99.3589933,20.9989823 L99.3589933,42.9299846 L64.7702407,42.9299846 L64.7702407,64.6707788 L101.676467,64.6707788 L122.538293,52.0362009 Z M0,0 L0,0 L57.7680525,0 L57.7680525,20.907587 L23.1792999,20.907587 L23.1792999,42.7431375 L57.7680525,42.7431375 L57.7680525,64.3893077 L23.1792999,64.3893077 L23.1792999,106.393862 L0,106.393862 L0,0 Z" id="P&amp;C-Copy-3" fill="#1B1819"></path>
            <g id="Group-5" transform="translate(0, 123.7852)">
                <rect id="Rectangle-Copy" fill="#25466E" x="0" y="0" width="133.333333" height="13.2992327"></rect>
                <rect id="Rectangle-Copy-2" fill="#54AF61" x="133.333333" y="0" width="133.333333" height="13.2992327"></rect>
                <rect id="Rectangle-Copy-3" fill="#04D2DF" x="266.666667" y="0" width="133.333333" height="13.2992327"></rect>
            </g>
        </g>
    </g>
</svg>