<?xml version="1.0" encoding="UTF-8"?>
<svg width="30px" height="30px" viewBox="0 0 30 30" version="1.1" xmlns="http://www.w3.org/2000/svg" xmlns:xlink="http://www.w3.org/1999/xlink">
    <title>electrical</title>
    <g id="electrical" stroke="none" stroke-width="1" fill="none" fill-rule="evenodd">
        <path d="M20.9106827,0.128348628 C21.2771169,0.347413253 21.4482864,0.798419628 21.3233942,1.21578463 L18.0489739,12.1876399 L24.090561,12.1876399 C24.4534424,12.1874908 24.7816491,12.4099115 24.9255017,12.7534674 C25.0693531,13.0970231 25.0012911,13.4958927 24.7523527,13.768172 L10.2074563,29.7047354 C9.9176623,30.0225201 9.45360385,30.0921719 9.08798983,29.8727591 C8.72237593,29.6533464 8.55184275,29.2028626 8.67660591,28.7860394 L11.9510258,17.8123092 L5.9094393,17.8123092 C5.54655697,17.8124585 5.21835063,17.5900377 5.0744986,17.2464819 C4.93064657,16.902926 4.99870917,16.5040564 5.24764638,16.2317772 L19.7925435,0.295213753 C20.081964,-0.0221134967 20.5452231,-0.0920247467 20.9106827,0.126473628 L20.9106827,0.128348628 Z" id="Path" fill="#1B1819" fill-rule="nonzero"></path>
    </g>
</svg>