<?xml version="1.0" encoding="UTF-8"?>
<svg width="30px" height="30px" viewBox="0 0 30 30" version="1.1" xmlns="http://www.w3.org/2000/svg" xmlns:xlink="http://www.w3.org/1999/xlink">
    <title>ev</title>
    <g id="ev" stroke="none" stroke-width="1" fill="none" fill-rule="evenodd">
        <path d="M4.72310843,6.77750455 C5.46244567,5.09112288 7.15910318,3.99837362 9.03559322,4.00000182 L20.9643019,4.00000182 C22.8392957,4.00000182 24.53429,5.09267177 25.2730376,6.77750455 L26.7580318,10.1655034 C26.8986563,10.4863366 27.1517804,10.7503366 27.4705294,10.9061698 C28.4080263,11.364503 29.0736491,12.2170027 29.2798984,13.2198357 L29.9080213,16.2980014 C29.9705205,16.5937791 30.0011457,16.8932234 29.9999673,17.1963344 L29.9999673,17.9535009 C29.9999673,19.4458344 29.2686484,20.7823332 28.1249022,21.6146663 L28.1249022,25.0833318 C28.1249022,25.5895926 27.7051708,26.0000018 27.1874053,26.0000018 L23.4374187,26.0000018 C22.9196532,26.0000018 22.4999218,25.5895926 22.4999218,25.0833318 L22.4999218,22.6303326 C20.0774298,22.7183326 17.3530648,22.7916659 14.9999475,22.7916659 C12.6468313,22.7916659 9.92246528,22.7183326 7.49997424,22.6303326 L7.49997424,25.0833318 C7.49997424,25.5895926 7.08024188,26.0000018 6.56247734,26.0000018 L2.81249069,26.0000018 C2.29472522,26.0000018 1.87499379,25.5895926 1.87499379,25.0833318 L1.87499379,21.6146663 C0.73124758,20.7823332 0,19.4458344 0,17.9535009 L0,17.1963344 C0.000314998957,16.8946634 0.0310892721,16.5937597 0.0918746959,16.2980014 L0.719997617,13.2180024 C0.926246934,12.2170027 1.59186973,11.3626696 2.52749163,10.9061698 C2.84842401,10.7506032 3.10182473,10.4878749 3.24186333,10.1655034 L4.72685842,6.77750455 L4.72310843,6.77750455 Z M17.3793147,7.71250422 C17.2383573,7.63205234 17.0591885,7.65794982 16.9480661,7.77483754 L11.3418356,13.6176689 C11.2465156,13.7179288 11.2209107,13.8638421 11.2765989,13.989436 C11.3322862,14.11503 11.4587105,14.1964967 11.5987097,14.197002 L13.925577,14.197002 L12.6637062,18.2211674 C12.6166842,18.3743671 12.6824102,18.5391909 12.8230807,18.6208339 C12.9637052,18.6996672 13.1418296,18.6758339 13.2543293,18.5585006 L18.6543104,12.7156692 C18.7496304,12.6154094 18.7752344,12.4694961 18.7195471,12.3439021 C18.6638589,12.2183083 18.5374355,12.1368415 18.3974363,12.1363361 L16.070569,12.1363361 L17.5368141,8.11217073 C17.5838362,7.958971 17.5181092,7.7941473 17.3774397,7.71250422 L17.3793147,7.71250422 Z" id="Shape" fill="#1B1819" fill-rule="nonzero"></path>
    </g>
</svg>