<?xml version="1.0" encoding="UTF-8"?>
<svg width="40px" height="30px" viewBox="0 0 40 30" version="1.1" xmlns="http://www.w3.org/2000/svg" xmlns:xlink="http://www.w3.org/1999/xlink">
    <title>p&amp;c</title>
    <g id="p&amp;c" stroke="none" stroke-width="1" fill="none" fill-rule="evenodd">
        <g id="Group-6-Copy-2" transform="translate(0, 8)">
            <path d="M37.6823432,3.55882353 L40,3.55882353 L40,1.3415252 L37.9141089,0 L34.2231947,0 L34.2231947,2.19739439 L37.6823432,2.19739439 L37.6823432,3.55882353 Z M40,7.44117647 L37.6534327,7.44117647 L37.6534327,8.76159841 L34.2231947,8.76159841 L34.2231947,11 L37.8880894,11 L40,9.69916163 L40,7.44117647 Z M27.7461707,9.6994037 L27.7461707,1.31968672 L29.8323533,0 L33.5229759,0 L33.5229759,2.16162335 L30.0641007,2.16162335 L30.0641007,8.76201495 L33.5229759,8.76201495 L33.5229759,11 L29.8323533,11 L27.7461707,9.6994037 Z M19.1684902,9.03472845 L19.1684902,11 L16.0105596,11 L14.0043764,9.88255064 L14.0043764,6.80032264 L16.7083042,5.62520165 L15.6096801,4.835544 L15.6096801,1.04055386 L18.1569167,0 L19.1684902,0 L19.1684902,2.56219753 L17.6332734,2.56219753 L17.6332734,3.48691522 L19.1684902,4.835544 L19.1684902,7.43618928 L18.6278832,7.03150206 L16.1676972,8.12972755 L16.1676972,9.03472845 L19.1684902,9.03472845 Z M25.9956236,6.80032264 L24.5528708,8.78481807 L25.9956236,9.90177451 L23.9472427,11 L23.324298,10.556865 L22.9319385,11 L19.868709,11 L19.868709,9.03472845 L21.2221442,9.03472845 L19.868709,8.05233913 L19.868709,4.18045349 L21.506958,3.48691522 L21.506958,2.56219753 L19.868709,2.56219753 L19.868709,0 L20.8840132,0 L23.5557946,1.04055386 L23.5557946,4.835544 L20.812468,6.01066499 L22.9319385,7.68659258 L23.9472427,6.14523212 L25.9956236,6.80032264 Z M12.2538293,5.37999279 L12.2538293,1.32545559 L10.1676467,0 L6.47702407,0 L6.47702407,2.17107266 L9.93589933,2.17107266 L9.93589933,4.43850634 L6.47702407,4.43850634 L6.47702407,6.68627451 L10.1676467,6.68627451 L12.2538293,5.37999279 Z M0,0 L0,0 L5.77680525,0 L5.77680525,2.16162335 L2.31792999,2.16162335 L2.31792999,4.41918832 L5.77680525,4.41918832 L5.77680525,6.65717337 L2.31792999,6.65717337 L2.31792999,11 L0,11 L0,0 Z" id="P&amp;C-Copy-3" fill="#1B1819"></path>
            <g id="Group-5" transform="translate(0, 13)">
                <rect id="Rectangle-Copy" fill="#25466E" x="0" y="0" width="13.3333333" height="1"></rect>
                <rect id="Rectangle-Copy-2" fill="#54AF61" x="13.3333333" y="0" width="13.3333333" height="1"></rect>
                <rect id="Rectangle-Copy-3" fill="#04D2DF" x="26.6666667" y="0" width="13.3333333" height="1"></rect>
            </g>
        </g>
    </g>
</svg>