<?xml version="1.0" encoding="UTF-8"?>
<svg width="30px" height="30px" viewBox="0 0 30 30" version="1.1" xmlns="http://www.w3.org/2000/svg" xmlns:xlink="http://www.w3.org/1999/xlink">
    <title>p&amp;c</title>
    <g id="p&amp;c" stroke="none" stroke-width="1" fill="none" fill-rule="evenodd">
        <g id="Group-6-Copy-2" transform="translate(0, 10)">
            <path d="M28.2617574,2.58823529 L30,2.58823529 L30,0.975654691 L28.4355816,0 L25.6673961,0 L25.6673961,1.59810501 L28.2617574,1.59810501 L28.2617574,2.58823529 Z M30,5.41176471 L28.2400745,5.41176471 L28.2400745,6.37207157 L25.6673961,6.37207157 L25.6673961,8 L28.4160671,8 L30,7.05393573 L30,5.41176471 Z M20.809628,7.05411178 L20.809628,0.959772161 L22.374265,0 L25.1422319,0 L25.1422319,1.57208971 L22.5480755,1.57208971 L22.5480755,6.37237451 L25.1422319,6.37237451 L25.1422319,8 L22.374265,8 L20.809628,7.05411178 Z M14.3763676,6.5707116 L14.3763676,8 L12.0079197,8 L10.5032823,7.18730955 L10.5032823,4.94568919 L12.5312282,4.09105574 L11.70726,3.51675928 L11.70726,0.756766446 L13.6176875,0 L14.3763676,0 L14.3763676,1.86341638 L13.2249551,1.86341638 L13.2249551,2.53593834 L14.3763676,3.51675928 L14.3763676,5.40813766 L13.9709124,5.11381968 L12.1257729,5.91252913 L12.1257729,6.5707116 L14.3763676,6.5707116 Z M19.4967177,4.94568919 L18.4146531,6.38895859 L19.4967177,7.20129055 L17.960432,8 L17.4932235,7.67772002 L17.1989538,8 L14.9015317,8 L14.9015317,6.5707116 L15.9166081,6.5707116 L14.9015317,5.85624664 L14.9015317,3.04032981 L16.1302185,2.53593834 L16.1302185,1.86341638 L14.9015317,1.86341638 L14.9015317,0 L15.6630099,0 L17.666846,0.756766446 L17.666846,3.51675928 L15.609351,4.37139272 L17.1989538,5.59024915 L17.960432,4.46925972 L19.4967177,4.94568919 Z M9.19037199,3.91272203 L9.19037199,0.963967705 L7.62573503,0 L4.85776805,0 L4.85776805,1.57896194 L7.4519245,1.57896194 L7.4519245,3.22800461 L4.85776805,3.22800461 L4.85776805,4.8627451 L7.62573503,4.8627451 L9.19037199,3.91272203 Z M0,0 L0,0 L4.33260394,0 L4.33260394,1.57208971 L1.73844749,1.57208971 L1.73844749,3.21395514 L4.33260394,3.21395514 L4.33260394,4.84158063 L1.73844749,4.84158063 L1.73844749,8 L0,8 L0,0 Z" id="P&amp;C-Copy-3" fill="#1B1819"></path>
            <g id="Group-5" transform="translate(0, 9)">
                <rect id="Rectangle-Copy" fill="#25466E" x="0" y="0" width="10" height="1"></rect>
                <rect id="Rectangle-Copy-2" fill="#54AF61" x="10" y="0" width="10" height="1"></rect>
                <rect id="Rectangle-Copy-3" fill="#04D2DF" x="20" y="0" width="10" height="1"></rect>
            </g>
        </g>
    </g>
</svg>