<?xml version="1.0" encoding="UTF-8"?>
<svg width="30px" height="30px" viewBox="0 0 30 30" version="1.1" xmlns="http://www.w3.org/2000/svg" xmlns:xlink="http://www.w3.org/1999/xlink">
    <title>solar</title>
    <g id="solar" stroke="none" stroke-width="1" fill="none" fill-rule="evenodd">
        <path d="M5.51874804,3 C4.0571378,3 2.8015861,4.0078111 2.5140559,5.4093751 L0.0604557896,17.4093751 C-0.318126748,19.2656227 1.12911492,21 3.06515273,21 L13.4641846,21 L13.4641846,24 L10.397187,24 C9.54897429,24 8.86369059,24.6703121 8.86369059,25.5 C8.86369059,26.3296902 9.54897429,27 10.397187,27 L19.5981752,27 C20.4463927,27 21.1316717,26.3296855 21.1316717,25.5 C21.1316717,24.6703168 20.4463927,24 19.5981752,24 L16.5311776,24 L16.5311776,21 L26.9302095,21 C28.8662521,21 30.3182818,19.2703107 29.9396991,17.4093751 L27.4861039,5.4093751 C27.1937809,4.0078111 25.9382292,3 24.4766142,3 L5.51874804,3 L5.51874804,3 Z M12.1655033,6.0000023 L17.829859,6.0000023 L18.3282454,10.8749997 L11.6671168,10.8749997 L12.1655033,6.0000023 L12.1655033,6.0000023 Z M9.35728433,10.8749997 L4.52197508,10.8749997 L5.51874804,6.0000023 L9.85088277,6.0000023 L9.35728433,10.8749997 L9.35728433,10.8749997 Z M4.06192569,13.1250003 L9.12726193,13.1250003 L8.6288755,17.9999977 L3.06515273,17.9999977 L4.06192569,13.1250003 Z M11.4370945,13.1250003 L18.5582725,13.1250003 L19.056659,17.9999977 L10.9387081,17.9999977 L11.4370945,13.1250003 Z M20.8681051,13.1250003 L25.9334365,13.1250003 L26.9302095,17.9999977 L21.3712842,17.9999977 L20.8681051,13.1250003 Z M25.4685943,10.8749997 L20.638078,10.8749997 L20.1396915,6.0000023 L24.4718215,6.0000023 L25.9765664,5.7046887 L24.4766142,6.0000023 L25.4733871,10.8749997 L25.4685943,10.8749997 Z" id="Shape" fill="#1B1819" fill-rule="nonzero"></path>
    </g>
</svg>