<?xml version="1.0" encoding="iso-8859-1"?>
<!-- Generator: Adobe Illustrator 18.1.1, SVG Export Plug-In . SVG Version: 6.00 Build 0)  -->
<svg version="1.1" id="Capa_1" xmlns="http://www.w3.org/2000/svg" xmlns:xlink="http://www.w3.org/1999/xlink" x="0px" y="0px"
	 viewBox="0 0 16.567 16.567" style="enable-background:new 0 0 16.567 16.567;" xml:space="preserve">
<g>
	<g>
		<path style="fill:#030104;" d="M8.505,4.341C6.477,2.618,3.43,2.714,1.514,4.63c-2.018,2.018-2.018,5.288,0,7.308
			c1.978,1.977,5.16,2.014,7.185,0.115L8.7,12.057l3.774-3.774L8.519,4.328L8.505,4.341z M7.141,10.256
			c-1.058,1.059-2.771,1.059-3.827,0c-1.057-1.055-1.057-2.77,0-3.827c1.056-1.056,2.77-1.056,3.827,0
			C8.198,7.486,8.198,9.201,7.141,10.256z"/>
		<path style="fill:#030104;" d="M4.381,7.826c0.106,0.078,0.198,0.157,0.322,0.28c0.446,0.446,0.487,0.768,0.257,0.999
			C4.723,9.341,4.39,9.214,4.174,8.998C3.971,8.797,3.831,8.533,3.779,8.385L3.297,8.683C3.355,8.873,3.52,9.16,3.791,9.432
			c0.6,0.6,1.323,0.59,1.738,0.174c0.261-0.26,0.343-0.549,0.288-0.83C5.772,8.505,5.604,8.241,5.392,8.029
			C5.337,7.973,5.296,7.932,5.241,7.892l0.391-0.295l0.864,0.865l0.429-0.429L5.697,6.805L4.381,7.826z"/>
		<polygon style="fill:#030104;" points="15.441,3.868 12.341,6.967 12.813,7.438 15.441,4.811 16.095,5.465 16.567,4.994 		"/>
	</g>
</g>
<g>
</g>
<g>
</g>
<g>
</g>
<g>
</g>
<g>
</g>
<g>
</g>
<g>
</g>
<g>
</g>
<g>
</g>
<g>
</g>
<g>
</g>
<g>
</g>
<g>
</g>
<g>
</g>
<g>
</g>
</svg>
