<svg id="e2984842-b8c7-4a8b-bd08-cf6a94ec9482" viewBox="0 0 64 64" xmlns="http://www.w3.org/2000/svg" data-name="Glyph"><path d="m28.413 26.60624c.69332-4.06492 5.92968-9.2891 9.974-9.97364a6.27084 6.27084 0 0 0 .16912-2.07389c-.21988-3.65879-6.268-2.33824-10.4252 1.79149-3.95005 3.95016-4.59191 8.542-3.287 9.847.8707.78211 2.30325.68825 3.56908.40904z"/><path d="m48.92491 12.82351c.68786 5.55548-2.42872 12.8477-7.35 17.4647a26.452 26.452 0 0 1 -5.88961 4.36619 33.74691 33.74691 0 0 1 -8.52079 5.24783c-4.9709 2.05827-9.92812 4.43082-13.81081 8.49277 1.83092 1.84174 6.90536 6.9053 6.90536 6.9053.69124-.69123 1.4037-1.33309 2.12314-1.93974-.35022-.33945-1.38583-1.39358-1.7493-1.74927a.99754.99754 0 0 1 1.41074-1.41072c.38386.39254 1.56147 1.5552 1.92561 1.92562a25.97269 25.97269 0 0 1 4.33093-2.65219c-.34857-.3464-1.26965-1.27122-1.62938-1.62938a.99764.99764 0 0 1 1.41076-1.4107l.06346.06348 2.07376 2.07376c1.619-.74 3.21-1.39207 4.82465-2.15836-.36184-.33772-1.3136-1.331-1.68585-1.68579a.99854.99854 0 0 1 0-1.41075 1.021 1.021 0 0 1 1.53061.11992c.39018.38867 1.66838 1.66942 2.03851 2.03848a30.533 30.533 0 0 0 4.23215-2.76506l-1.95381-1.9538a1.02071 1.02071 0 0 1 -.10581-1.51655 1.09828 1.09828 0 0 1 1.68578.27515l1.94683 1.94676c1.26258-1.02278 2.47578-2.10907 3.70314-3.27994-.62506-.62675-1.80758-1.80637-2.43349-2.43351a.99764.99764 0 0 1 1.41077-1.41071c.51967.526 2.43348 2.43346 2.43348 2.43346a.42846.42846 0 0 0 .11283-.11283c1.22282-.70339 2.30553-2.44518 3.19544-3.562-.46336-.46-2.17175-2.17418-2.66642-2.66642a.99765.99765 0 0 1 1.41075-1.41069c.48833.49161 1.88542 1.883 2.35589 2.35589a21.41236 21.41236 0 0 0 2.07377-4.90921c-.5284-.52946-2.8673-2.86653-3.44217-3.44217a.99765.99765 0 0 1 1.41075-1.41067c.57123.57048 1.95635 1.95686 2.51106 2.511.50082-3.73134-.36676-7.19469-2.73676-9.56469l-3.37866-3.39278a11.44014 11.44014 0 0 1 .23269 1.65762z"/><path d="m9.86205 56.18906 3.019 3.019a2.75158 2.75158 0 0 0 4.084-.24695c.61366-.76877 1.24846-1.51645 1.90449-2.22887 0 0-5.07313-5.07377-6.90547-6.90547-1.49007 1.71378-4.29107 4.07084-2.10202 6.36229z"/><path d="m28.48358 37.0738a16.11575 16.11575 0 0 1 -5.33958-.134l1.77046 1.77046c1.19962-.52533 2.38527-1.03955 3.56912-1.63646z"/><path d="m19.93457 33.50468c4.21361 2.69728 9.443 2.19389 14.67861-.543 9.03606-4.45677 16.89563-18.475 9.57867-26.11257-4.96564-4.96574-14.74193-3.27286-21.78847 3.77369-7.45319 7.58992-9.17207 18.06351-2.46881 22.88188zm6.78561-18.56509c4.24624-4.24624 10.17129-5.784 12.66829-3.287s.95218 8.41494-3.29406 12.66118c-10.02805 9.6096-20.03723 2.5497-9.37423-9.37418z"/></svg>