<svg id="Layer_2" viewBox="0 0 100 100" xmlns="http://www.w3.org/2000/svg" data-name="Layer 2"><path d="m74.2 41.03c-.74-.74-1.95-.74-2.69 0s-.74 1.95 0 2.69l4.37 4.37h-51.76l4.37-4.37c.74-.74.74-1.95 0-2.69s-1.95-.74-2.69 0l-7.62 7.62c-.74.74-.74 1.95 0 2.69l7.62 7.62c.37.37.86.56 1.35.56s.97-.19 1.35-.56c.74-.74.74-1.95 0-2.69l-4.37-4.37h51.76l-4.37 4.37c-.74.74-.74 1.95 0 2.69.37.37.86.56 1.35.56s.97-.19 1.35-.56l7.62-7.62c.74-.74.74-1.95 0-2.69l-7.62-7.62z"/><path d="m11.9 40.48c-1.05 0-1.9.85-1.9 1.9v15.24c0 1.05.85 1.9 1.9 1.9s1.9-.85 1.9-1.9v-15.24c0-1.05-.85-1.9-1.9-1.9z"/><path d="m88.1 40.48c-1.05 0-1.9.85-1.9 1.9v15.24c0 1.05.85 1.9 1.9 1.9s1.9-.85 1.9-1.9v-15.24c0-1.05-.85-1.9-1.9-1.9z"/></svg>