<svg id="&#x421;&#x43B;&#x43E;&#x439;_1" enable-background="new 0 0 16 16" viewBox="0 0 16 16" xmlns="http://www.w3.org/2000/svg"><g fill="rgb(0,0,0)"><path d="m14.9511719 2.7988281c-.7089844-1.1171875-1.1523438-1.1738281-1.8164063-1.1738281h-10.2695312c-.6640625 0-1.1074219.0566406-1.8164063 1.1738281-.0058593.0087891-.0107422.0175782-.0146484.0253907-.5947266 1.1240234-.9091797 2.3955078-.9091797 3.6757812 0 4.3427734 3.5322266 7.875 7.875 7.875s7.875-3.5322266 7.875-7.875c0-1.2802734-.3144531-2.5517578-.9238281-3.7011719zm-6.9511719 10.8261719c-3.9287109 0-7.125-3.1962891-7.125-7.125 0-1.1533203.28125-2.2988281.8144531-3.3115234.5185547-.8134766.6982422-.8134766 1.1757813-.8134766h10.2695313c.4794922 0 .6591797 0 1.1689453.8007813.5371093 1.015625.821289 2.165039.821289 3.3242187 0 3.9287109-3.1962891 7.125-7.125 7.125z"/><path d="m5.375 6c0-1.0341797-.8408203-1.875-1.875-1.875s-1.875.8408203-1.875 1.875.8408203 1.875 1.875 1.875 1.875-.8408203 1.875-1.875zm-1.875 1.125c-.6201172 0-1.125-.5048828-1.125-1.125s.5048828-1.125 1.125-1.125 1.125.5048828 1.125 1.125-.5048828 1.125-1.125 1.125z"/><path d="m9.875 6c0-1.0341797-.8408203-1.875-1.875-1.875s-1.875.8408203-1.875 1.875.8408203 1.875 1.875 1.875 1.875-.8408203 1.875-1.875zm-1.875 1.125c-.6201172 0-1.125-.5048828-1.125-1.125s.5048828-1.125 1.125-1.125 1.125.5048828 1.125 1.125-.5048828 1.125-1.125 1.125z"/><path d="m12.5 4.125c-1.0341797 0-1.875.8408203-1.875 1.875s.8408203 1.875 1.875 1.875 1.875-.8408203 1.875-1.875-.8408203-1.875-1.875-1.875zm0 3c-.6201172 0-1.125-.5048828-1.125-1.125s.5048828-1.125 1.125-1.125 1.125.5048828 1.125 1.125-.5048828 1.125-1.125 1.125z"/><path d="m5.75 8.125c-1.0341797 0-1.875.8408203-1.875 1.875s.8408203 1.875 1.875 1.875 1.875-.8408203 1.875-1.875-.8408203-1.875-1.875-1.875zm0 3c-.6201172 0-1.125-.5048828-1.125-1.125s.5048828-1.125 1.125-1.125 1.125.5048828 1.125 1.125-.5048828 1.125-1.125 1.125z"/><path d="m10.25 8.125c-1.0341797 0-1.875.8408203-1.875 1.875s.8408203 1.875 1.875 1.875 1.875-.8408203 1.875-1.875-.8408203-1.875-1.875-1.875zm0 3c-.6201172 0-1.125-.5048828-1.125-1.125s.5048828-1.125 1.125-1.125 1.125.5048828 1.125 1.125-.5048828 1.125-1.125 1.125z"/><circle cx="6" cy="3.5" r=".375"/><circle cx="10" cy="3.5" r=".375"/></g></svg>