<svg id="Capa_1" enable-background="new 0 0 207.2 207.2" height="512" viewBox="0 0 207.2 207.2" width="512" xmlns="http://www.w3.org/2000/svg"><g><g id="_1"><path d="m103.6 207.2c-57.217 0-103.6-46.383-103.6-103.6s46.383-103.6 103.6-103.6 103.6 46.383 103.6 103.6-46.383 103.6-103.6 103.6zm0-192.4c-49.043 0-88.8 39.757-88.8 88.8s39.757 88.8 88.8 88.8 88.8-39.757 88.8-88.8-39.757-88.8-88.8-88.8z"/><path d="m95.164 148c-1.834-.005-3.601-.69-4.958-1.924l-35.002-32.338c-2.826-2.953-2.723-7.637.23-10.463 2.687-2.572 6.865-2.749 9.76-.415l29.008 26.862 51.8-67.71c2.473-3.27 7.127-3.916 10.397-1.443s3.916 7.127 1.443 10.397l-56.388 74c-1.237 1.716-3.15 2.82-5.254 3.034z"/></g></g></svg>