<?xml version="1.0" encoding="UTF-8"?>
<svg width="600px" height="65px" viewBox="0 0 600 65" version="1.1" xmlns="http://www.w3.org/2000/svg" xmlns:xlink="http://www.w3.org/1999/xlink">
    <title>ecoflow</title>
    <g id="SOlar-Brands" stroke="none" stroke-width="1" fill="none" fill-rule="evenodd">
        <g id="ecoflow" fill="#212121" fill-rule="nonzero">
            <path d="M72.1,10.7 L0,10.7 L0,5.68434189e-14 L72.1,5.68434189e-14 L72.1,10.7 Z M72,37.4 L0,37.4 L0,26.7 L72,26.7 L72,37.4 Z M72,53.4 L72,64.1 L0,64.1 L0,53.4 L72,53.4 Z M149.7,10.8 L124,10.9 C106.8,10.9 98.7,17.9 98.7,32.1 C98.7,46.3 106.8,53.4 123.9,53.4 L159.9,53.4 L159.9,64 L123.9,64.1 C99.9,64.1 87.9,53.5 87.9,32.3 C87.9,11 99.8,0.4 123.6,0.3 L160,0.3 L160,11 C160,10.8 149.7,10.8 149.7,10.8 Z M211.7,0.2 C235.9,0.2 247.9,10.8 247.9,32.1 C247.9,53.4 235.9,64 211.9,64 C187.9,64 175.9,53.4 175.9,32.2 C176,10.9 187.9,0.3 211.7,0.2 L211.7,0.2 Z M237.1,32.1 C237.1,17.9 229.1,10.9 211.9,10.9 C194.7,10.9 186.8,17.9 186.8,32.1 C186.8,46.3 194.7,53.4 211.9,53.4 C229.1,53.4 237.1,46.3 237.1,32.1 Z M589.7,0.2 L589.7,53.3 L569.1,53.3 L569.1,0.1 L558.8,0.1 L558.8,53.3 L538.2,53.3 L538.2,5.68434189e-14 L527.9,5.68434189e-14 L527.9,64 L589.7,64 C597.4,64 600,59.9 600,53.4 L600,0.1 L589.7,0.2 L589.7,0.2 L589.7,0.2 Z M424,53.4 L369.9,53.4 C365.7,53.4 362.2,50 362.2,45.7 L362.2,0.1 L352,0.1 L352,48.5 C352,57.1 358.9,64 367.5,64 L424,64 L424,53.4 L424,53.4 Z M475.6,0.2 C499.8,0.2 511.8,10.8 511.8,32.1 C511.8,53.4 499.8,64 475.8,64 C451.8,64 439.8,53.4 439.8,32.2 C439.9,10.9 451.8,0.3 475.6,0.2 Z M501.1,32.1 C501.1,17.9 493.1,10.9 475.9,10.9 C458.7,10.9 450.8,17.9 450.8,32.1 C450.8,46.3 458.7,53.4 475.9,53.4 C493,53.4 501.1,46.3 501.1,32.1 Z M266.3,0 L337.1,0 L337.1,10.1 L266.3,10.1 L266.3,0 Z M337.1,37.6 L276.4,37.6 L276.4,64 L266.3,64 L266.3,26.9 L337.1,26.9 L337.1,37.6 Z" id="Shape"></path>
        </g>
    </g>
</svg>