<?xml version="1.0" encoding="UTF-8"?>
<svg width="600px" height="78px" viewBox="0 0 600 78" version="1.1" xmlns="http://www.w3.org/2000/svg" xmlns:xlink="http://www.w3.org/1999/xlink">
    <title>tesla</title>
    <g id="SOlar-Brands" stroke="none" stroke-width="1" fill="none" fill-rule="evenodd">
        <g id="tesla" fill="#000000" fill-rule="nonzero">
            <path d="M0,0.150807899 C1.74218408,6.97378815 7.62527367,13.9475763 15.6968211,15.6947935 L40.0916893,15.6947935 L41.3361065,16.1881508 L41.3361065,78 L56.5694894,78 L56.5694894,16.1881508 L57.9533672,15.6947935 L82.3696909,15.6947935 C90.5313513,13.5834829 96.2878536,6.97378815 98,0.150807899 L98,0 L0,0 L0,0.150807899 M151.660788,78 L209.339212,78 C217.363924,76.354399 223.328007,69.0604433 225,62 L136,62 C137.661316,69.0626463 143.712949,76.354399 151.660788,78 M151.660788,46 L209.339212,46 C217.363924,44.3673919 223.328007,37.0702286 225,30 L136,30 C137.661316,37.0724318 143.712949,44.3673919 151.660788,46 M151.660788,16 L209.339212,16 C217.363924,14.3504474 223.328007,7.06290434 225,0 L136,0 C137.661316,7.06290434 143.712949,14.3504474 151.660788,16 M284.329361,15.3432754 L337.585943,15.3432754 C345.614767,12.9931913 352.356674,6.83093971 354,0 L269.4007,0 L269.4007,46.0448769 L338.642367,46.0448769 L338.642367,62.2030488 L284.329361,62.2460512 C275.81821,64.6369876 268.600379,70.3950161 265,78 L269.4007,77.9182953 L353.519807,77.9182953 L353.519807,30.7360035 L284.329361,30.7360035 L284.329361,15.3432754 M466.700456,78 C474.326332,74.7688234 478.428764,69.1798775 480,62.6400794 L412.163503,62.6400794 L412.20655,0 L397,0.0430249876 L397,78 L466.700456,78 M526.651496,16 L584.346369,16 C592.36002,14.3563757 598.319546,7.05921234 600,0 L511,0 C512.663372,7.06141559 518.710444,14.3563757 526.651496,16 M513,30 L513,78 L528.251413,78 L528.251413,46.041621 L583.759439,46.041621 L583.759439,78 L599,78 L599,30.0832421 L513,30" id="Combined-Shape"></path>
        </g>
    </g>
</svg>